<svg width="128" height="128" viewBox="0 0 128 128" fill="none" xmlns="http://www.w3.org/2000/svg">
<rect width="128" height="128" fill="#D14735"/>
<path d="M0 128L128 0V128H0Z" fill="#212121"/>
<mask id="mask0_30_1477" style="mask-type:alpha" maskUnits="userSpaceOnUse" x="0" y="0" width="128" height="128">
<path d="M0 128L128 0V128H0Z" fill="#C4C4C4"/>
</mask>
<g mask="url(#mask0_30_1477)">
<path d="M96.2395 64.732C96.9295 64.042 97.4815 63.214 98.5855 63.076C98.4475 62.386 99.4135 62.386 99.6895 61.834C99.6895 61.696 99.6895 61.006 99.8275 60.73C99.9655 60.454 100.38 60.454 100.518 60.316C101.208 58.798 101.07 57.004 101.622 55.21C103.278 50.38 103.968 45.688 103.968 40.168C103.002 35.89 100.794 33.268 98.3095 30.094C97.2055 29.956 96.3775 29.404 95.9635 28.438C93.3415 27.196 90.5815 26.644 87.9595 25.264C83.8195 24.022 76.6435 21.4 71.1235 22.09C69.8815 22.366 68.6395 21.538 67.5355 21.538C65.4655 21.538 63.2575 22.09 61.7395 21.538C56.3575 22.918 49.3195 21.676 42.9715 22.78C41.0395 21.952 37.0375 22.09 35.9335 23.884C37.1755 27.472 36.7615 32.716 36.7615 36.166C38.0035 38.374 37.1755 43.204 38.0035 46.792C37.4515 49.69 38.1415 54.244 37.5895 57.418C37.5895 57.832 38.0035 57.004 37.8655 57.694C37.7275 59.212 38.0035 60.316 37.5895 61.282C37.8655 62.938 38.0035 64.732 38.0035 66.802C37.7275 79.636 37.3135 95.782 37.0375 109.72C36.4855 110.686 36.4855 112.204 37.1755 113.17C35.9335 114.55 35.9335 116.758 37.4515 118C41.0395 118 43.6615 117.448 48.3535 117.586C49.3195 118.414 51.1135 118 51.9415 118C57.4615 117.586 62.8435 118.69 66.9835 117.724C68.7775 118.552 71.8135 117.724 72.9175 117.724C74.5735 117.586 77.7475 116.758 79.5415 116.758C79.8175 116.758 79.6795 117.172 79.9555 117.034C82.7155 116.206 85.1995 115.93 87.8215 114.964C90.4435 113.86 94.0315 112.894 96.2395 111.652C97.2055 110.41 98.3095 109.306 99.4135 108.202C100.104 107.926 100.38 107.65 100.932 107.098C102.45 107.236 102.864 105.442 104.244 105.304C104.52 104.614 105.072 104.2 105.624 104.2C105.486 103.372 106.038 103.51 106.314 103.234C106.176 103.096 106.038 102.958 106.038 102.82C106.452 102.406 106.452 101.578 107.004 101.578C107.832 99.37 108.66 97.162 109.626 95.23C109.626 93.988 110.04 92.746 110.592 92.056C110.316 89.296 110.592 87.226 110.454 84.328C110.454 84.052 110.73 84.19 110.868 84.19C110.592 83.638 110.592 83.638 110.454 82.948C110.316 82.396 110.592 82.258 110.73 81.982C110.454 79.636 109.212 77.704 108.798 75.772C108.384 74.254 107.418 73.288 106.59 71.77C103.14 69.562 100.794 66.112 96.2395 64.732ZM61.6015 44.308C60.6355 42.376 62.8435 38.236 61.8775 35.752C64.9135 36.166 66.7075 35.338 68.9155 36.166C69.3295 36.166 69.3295 35.752 69.8815 35.89C70.2955 35.89 70.7095 35.89 70.9855 36.166C71.9515 35.89 73.8835 35.89 75.2635 36.304C76.6435 38.098 78.2995 40.168 79.8175 42.1C80.5075 42.928 80.9215 43.756 81.4735 44.584C82.7155 46.24 83.8195 46.93 83.8195 49.828C83.8195 51.622 83.4055 53.83 83.1295 55.624C82.9915 56.728 81.8875 57.28 81.4735 58.108C80.9215 58.246 80.3695 58.522 79.9555 58.936C73.7455 60.454 69.1915 61.834 62.5675 61.972C62.5675 60.868 62.5675 60.316 62.4295 59.074C60.6355 54.658 61.3255 49.966 61.1875 46.654C61.1875 45.688 60.7735 44.86 61.6015 44.308ZM86.8555 94.816C86.5795 96.196 85.1995 96.748 84.9235 98.404C83.2675 97.99 81.8875 99.922 80.7835 99.37C80.5075 99.37 80.6455 99.784 80.5075 99.784C75.1255 101.578 67.5355 100.75 62.0155 101.578C61.6015 99.508 61.3255 97.576 61.1875 95.782C61.0495 95.368 61.4635 95.368 61.7395 95.23C59.8075 91.09 60.3595 84.052 60.3595 79.084C63.2575 79.36 67.8115 79.084 71.1235 79.084C72.2275 79.084 74.7115 78.808 75.9535 79.084C76.5055 79.222 77.0575 79.774 77.7475 80.188C79.2655 81.016 81.7495 82.258 83.1295 83.5C83.6815 84.052 83.9575 85.018 84.3715 85.57C84.5095 85.708 84.7855 85.57 84.9235 85.846C85.1995 86.122 86.0275 88.468 86.3035 89.158C86.8555 90.814 87.2695 93.298 86.8555 94.816Z" fill="#F4F4F4"/>
</g>
<mask id="mask1_30_1477" style="mask-type:alpha" maskUnits="userSpaceOnUse" x="0" y="0" width="128" height="128">
<path d="M0 128L128 0H0V128Z" fill="#C4C4C4"/>
</mask>
<g mask="url(#mask1_30_1477)">
<path d="M59.8763 7.968C59.7303 7.38399 60.4603 7.968 60.4603 7.52999C55.7883 6.508 49.5103 7.238 44.9843 6.94599C45.1303 7.676 44.6923 7.968 44.6923 8.69799C44.5463 8.69799 44.2543 8.69799 44.1083 8.69799C43.5243 11.034 42.3563 12.056 42.2103 13.954C41.4803 13.954 41.4803 14.684 40.8963 14.684C40.4583 17.896 38.8523 21.254 38.5603 24.174C37.6843 24.758 38.1223 26.948 37.1003 27.532C37.1003 27.97 37.3923 27.97 37.3923 28.408C34.3263 37.606 32.1363 48.118 28.9243 58.046C29.2163 59.068 28.7783 59.944 28.1943 60.382C28.1943 61.404 28.0483 64.032 27.0263 64.032C26.7343 66.368 25.7123 69.288 25.2743 71.186C25.1283 71.186 24.9823 71.186 24.8363 71.186C24.6903 71.916 24.8363 72.062 24.6903 72.938C24.5443 72.938 24.3983 72.938 24.1063 72.938C21.3323 82.136 17.3903 91.188 14.7623 99.072C14.6163 99.072 14.3243 99.072 14.1783 99.072C14.0323 100.24 13.0103 101.262 13.4483 102.43C12.4263 102.576 13.1563 103.744 12.2803 104.182C12.8643 104.766 11.9883 105.788 11.8423 106.664C12.7183 106.81 11.5503 107.102 12.2803 107.54C13.0103 107.686 12.1343 107.102 12.8643 107.102C12.8643 107.394 12.7183 107.686 13.1563 107.54C16.3683 108.124 20.0183 108.27 23.5223 108.124C23.8143 107.832 23.6683 107.248 23.9603 107.102C24.2523 107.54 24.6903 107.248 24.3983 107.978C27.7563 107.832 32.1363 107.394 35.0563 107.54C35.4943 107.248 35.9323 106.956 35.9323 106.372C35.7863 105.934 35.2023 106.226 35.0563 105.788C35.3483 105.788 35.6403 105.934 35.7863 105.934C35.6403 105.642 35.3483 105.496 36.0783 105.496C36.2243 105.058 35.9323 104.912 35.7863 104.766C35.9323 104.766 36.2243 104.766 36.5163 104.766C36.9543 100.24 37.6843 97.466 39.2903 93.524C39.1443 93.378 38.9983 93.232 38.7063 92.94C40.7503 90.02 42.2103 86.078 43.5243 82.866C52.4303 81.552 61.4823 83.012 70.3883 82.428C70.9723 81.844 71.8483 82.428 73.1623 82.282C74.3303 84.764 75.0603 88.268 75.4983 91.042C76.3743 91.626 76.0823 92.648 76.3743 93.816C76.5203 95.13 76.5203 96.444 77.3963 97.466C77.6883 100.678 79.0023 102.722 79.4403 105.496C80.3163 105.35 80.0243 106.518 79.8783 107.54C80.3163 107.54 80.3163 107.978 80.3163 108.27C80.7543 108.124 81.0463 108.562 81.4843 108.27C82.3603 109.73 83.3823 108.854 84.6963 108.708C86.5943 108.562 89.3683 108.124 91.7043 108.124C93.4563 108.124 95.2083 108.854 96.2303 107.978C97.8363 108.124 100.902 108.416 102.07 107.978C102.362 108.708 103.822 109.146 104.552 108.416C104.552 106.518 103.53 105.642 102.508 104.912C102.654 104.912 102.8 104.766 102.946 104.62C101.924 103.014 100.61 101.554 100.61 99.364C100.318 99.072 99.7343 99.072 99.5883 98.634C99.5883 97.758 99.0043 97.174 98.7123 96.736C98.2743 95.714 98.2743 94.546 97.8363 93.378C97.6903 93.232 97.3983 93.232 97.2523 92.94C97.2523 92.794 97.3983 92.356 97.2523 92.064C97.2523 91.626 96.8143 91.334 96.6683 91.042C95.3543 87.1 93.6023 81.99 93.0183 78.194C92.8723 77.318 92.2883 76.442 91.9963 75.566C91.8503 74.982 92.1423 74.252 91.9963 73.814C91.8503 72.5 90.8283 71.332 91.2663 69.872C90.6823 69.434 90.3903 68.12 90.5363 67.536C89.6603 65.346 88.7843 62.134 88.0543 59.506C86.7403 57.316 85.7183 54.104 84.8423 52.06C83.2363 50.746 83.0903 47.972 81.9223 46.22C80.9003 42.132 78.2723 38.92 77.5423 34.248C77.2503 34.248 77.1043 34.54 77.1043 34.248C77.1043 34.102 77.1043 33.956 76.8123 33.956C76.0823 31.912 74.3303 29.576 73.4543 27.386C73.1623 26.802 72.7243 25.926 73.1623 25.342C72.1403 24.904 71.8483 23.59 71.5563 22.568C70.6803 19.794 69.9503 16.582 69.3663 14.392C68.1983 13.37 68.1983 12.202 67.4683 10.596C65.8623 10.158 66.4463 8.552 65.8623 7.676C63.9643 6.94599 62.7963 8.11399 60.6063 7.38399C60.6063 7.676 60.0223 8.25999 59.8763 7.968ZM57.6863 40.088C57.5403 39.066 58.4163 37.752 58.7083 36.584C62.3583 45.782 63.9643 55.564 67.3223 65.054C64.2563 65.784 61.9203 66.368 59.1463 66.514C58.5623 66.368 58.8543 66.952 58.5623 67.098C56.3723 67.098 55.3503 67.974 53.7443 67.536C52.1383 67.536 49.2183 68.558 47.7583 68.412C47.3203 69.142 46.2983 69.434 45.1303 69.58C46.4443 64.178 49.5103 61.258 50.6783 56.294C53.5983 51.476 55.2043 45.928 57.2483 40.088C57.3943 40.088 57.5403 40.088 57.6863 40.088Z" fill="#F4F4F4"/>
</g>
</svg>
