<svg width="128" height="128" viewBox="0 0 128 128" fill="none" xmlns="http://www.w3.org/2000/svg">
<path d="M65.7945 4.28246C65.6207 3.58696 66.49 4.28246 66.49 3.76084C60.9261 2.54372 53.4495 3.41309 48.0594 3.06534C48.2333 3.93472 47.7117 4.28246 47.7117 5.15183C47.5378 5.15183 47.19 5.15183 47.0162 5.15183C46.3207 7.93382 44.9297 9.15093 44.7558 11.4113C43.8864 11.4113 43.8864 12.2807 43.1909 12.2807C42.6693 16.1059 40.7567 20.105 40.4089 23.5825C39.3657 24.278 39.8873 26.8861 38.6702 27.5816C38.6702 28.1032 39.018 28.1032 39.018 28.6248C35.3666 39.5789 32.7585 52.0978 28.9333 63.9213C29.281 65.1384 28.7594 66.1816 28.0639 66.7032C28.0639 67.9204 27.89 71.0501 26.6729 71.0501C26.3251 73.8321 25.108 77.3096 24.5864 79.5699C24.4125 79.5699 24.2387 79.5699 24.0648 79.5699C23.8909 80.4393 24.0648 80.6132 23.8909 81.6564C23.717 81.6564 23.5432 81.6564 23.1954 81.6564C19.8918 92.6105 15.1972 103.391 12.0675 112.78C11.8936 112.78 11.5459 112.78 11.372 112.78C11.1981 114.171 9.98099 115.388 10.5026 116.779C9.28549 116.953 10.1549 118.344 9.11162 118.865C9.80711 119.561 8.76387 120.778 8.59 121.821C9.63324 121.995 8.24225 122.343 9.11162 122.865C9.98099 123.038 8.93774 122.343 9.80711 122.343C9.80711 122.691 9.63324 123.038 10.1549 122.865C13.9801 123.56 18.3269 123.734 22.4999 123.56C22.8477 123.212 22.6738 122.517 23.0215 122.343C23.3693 122.865 23.8909 122.517 23.5432 123.386C27.5423 123.212 32.7585 122.691 36.236 122.865C36.7576 122.517 37.2792 122.169 37.2792 121.474C37.1053 120.952 36.4098 121.3 36.236 120.778C36.5837 120.778 36.9315 120.952 37.1053 120.952C36.9315 120.604 36.5837 120.43 37.4531 120.43C37.627 119.909 37.2792 119.735 37.1053 119.561C37.2792 119.561 37.627 119.561 37.9747 119.561C38.4963 114.171 39.3657 110.867 41.2783 106.173C41.1044 105.999 40.9306 105.825 40.5828 105.477C43.0171 102 44.7558 97.3051 46.3207 93.4798C56.927 91.915 67.7072 93.6537 78.3135 92.9582C79.009 92.2627 80.0522 92.9582 81.6171 92.7843C83.0081 95.7402 83.8775 99.9132 84.3991 103.217C85.4423 103.912 85.0946 105.129 85.4423 106.52C85.6162 108.085 85.6162 109.65 86.6594 110.867C87.0072 114.692 88.572 117.127 89.0937 120.43C90.1369 120.256 89.7892 121.647 89.6153 122.865C90.1369 122.865 90.1369 123.386 90.1369 123.734C90.6585 123.56 91.0063 124.082 91.5279 123.734C92.5711 125.473 93.7883 124.429 95.3531 124.256C97.6135 124.082 100.917 123.56 103.699 123.56C105.786 123.56 107.872 124.429 109.089 123.386C111.002 123.56 114.653 123.908 116.044 123.386C116.392 124.256 118.131 124.777 119 123.908C119 121.647 117.783 120.604 116.566 119.735C116.74 119.735 116.914 119.561 117.087 119.387C115.87 117.474 114.305 115.736 114.305 113.128C113.958 112.78 113.262 112.78 113.088 112.258C113.088 111.215 112.393 110.519 112.045 109.998C111.523 108.781 111.523 107.39 111.002 105.999C110.828 105.825 110.48 105.825 110.306 105.477C110.306 105.303 110.48 104.782 110.306 104.434C110.306 103.912 109.785 103.565 109.611 103.217C108.046 98.5222 105.959 92.4366 105.264 87.9159C105.09 86.8726 104.395 85.8294 104.047 84.7861C103.873 84.0906 104.221 83.2213 104.047 82.6996C103.873 81.1348 102.656 79.7438 103.177 78.0051C102.482 77.4834 102.134 75.9186 102.308 75.2231C101.265 72.615 100.222 68.7897 99.3522 65.66C97.7874 63.0519 96.5703 59.2267 95.527 56.7924C93.6144 55.2276 93.4405 51.9239 92.0495 49.8375C90.8324 44.969 87.7027 41.1438 86.8333 35.5798C86.4856 35.5798 86.3117 35.9275 86.3117 35.5798C86.3117 35.4059 86.3117 35.232 85.9639 35.232C85.0946 32.7978 83.0081 30.0158 81.9648 27.4077C81.6171 26.7122 81.0955 25.669 81.6171 24.9735C80.4 24.4518 80.0522 22.887 79.7045 21.6699C78.6612 18.3663 77.7919 14.541 77.0964 11.9329C75.7054 10.7158 75.7054 9.32481 74.836 7.41219C72.9234 6.89057 73.6189 4.97796 72.9234 3.93472C70.663 3.06534 69.272 4.45633 66.6639 3.58696C66.6639 3.93472 65.9684 4.6302 65.7945 4.28246ZM63.1864 42.5347C63.0126 41.3176 64.0558 39.7528 64.4036 38.3618C68.7504 49.3158 70.663 60.9654 74.6621 72.2672C71.0108 73.1366 68.2288 73.8321 64.9252 74.0059C64.2297 73.8321 64.5774 74.5276 64.2297 74.7014C61.6216 74.7014 60.4045 75.7447 58.4918 75.2231C56.5792 75.2231 53.1017 76.4402 51.363 76.2663C50.8414 77.1357 49.6243 77.4834 48.2333 77.6573C49.7981 71.224 53.4495 67.7465 54.8405 61.8348C58.318 56.0969 60.2306 49.4897 62.6648 42.5347C62.8387 42.5347 63.0126 42.5347 63.1864 42.5347Z" fill="#212121"/>
</svg>
