<svg width="780" height="40">
<path d="M15.437 8.472C15.403 8.336 15.573 8.472 15.573 8.37C14.485 8.132 13.023 8.302 11.969 8.234C12.003 8.404 11.901 8.472 11.901 8.642C11.867 8.642 11.799 8.642 11.765 8.642C11.629 9.186 11.357 9.424 11.323 9.866C11.153 9.866 11.153 10.036 11.017 10.036C10.915 10.784 10.541 11.566 10.473 12.246C10.269 12.382 10.371 12.892 10.133 13.028C10.133 13.13 10.201 13.13 10.201 13.232C9.48695 15.374 8.97695 17.822 8.22895 20.134C8.29695 20.372 8.19495 20.576 8.05895 20.678C8.05895 20.916 8.02495 21.528 7.78695 21.528C7.71895 22.072 7.48095 22.752 7.37895 23.194C7.34495 23.194 7.31095 23.194 7.27695 23.194C7.24295 23.364 7.27695 23.398 7.24295 23.602C7.20895 23.602 7.17495 23.602 7.10695 23.602C6.46095 25.744 5.54295 27.852 4.93095 29.688C4.89695 29.688 4.82895 29.688 4.79495 29.688C4.76095 29.96 4.52295 30.198 4.62495 30.47C4.38695 30.504 4.55695 30.776 4.35295 30.878C4.48895 31.014 4.28495 31.252 4.25095 31.456C4.45495 31.49 4.18295 31.558 4.35295 31.66C4.52295 31.694 4.31895 31.558 4.48895 31.558C4.48895 31.626 4.45495 31.694 4.55695 31.66C5.30495 31.796 6.15495 31.83 6.97095 31.796C7.03895 31.728 7.00495 31.592 7.07295 31.558C7.14095 31.66 7.24295 31.592 7.17495 31.762C7.95695 31.728 8.97695 31.626 9.65695 31.66C9.75895 31.592 9.86095 31.524 9.86095 31.388C9.82695 31.286 9.69095 31.354 9.65695 31.252C9.72495 31.252 9.79295 31.286 9.82695 31.286C9.79295 31.218 9.72495 31.184 9.89495 31.184C9.92895 31.082 9.86095 31.048 9.82695 31.014C9.86095 31.014 9.92895 31.014 9.99695 31.014C10.099 29.96 10.269 29.314 10.643 28.396C10.609 28.362 10.575 28.328 10.507 28.26C10.983 27.58 11.323 26.662 11.629 25.914C13.703 25.608 15.811 25.948 17.885 25.812C18.021 25.676 18.225 25.812 18.531 25.778C18.803 26.356 18.973 27.172 19.075 27.818C19.279 27.954 19.211 28.192 19.279 28.464C19.313 28.77 19.313 29.076 19.517 29.314C19.585 30.062 19.891 30.538 19.993 31.184C20.197 31.15 20.129 31.422 20.095 31.66C20.197 31.66 20.197 31.762 20.197 31.83C20.299 31.796 20.367 31.898 20.469 31.83C20.673 32.17 20.911 31.966 21.217 31.932C21.659 31.898 22.305 31.796 22.849 31.796C23.257 31.796 23.665 31.966 23.903 31.762C24.277 31.796 24.991 31.864 25.263 31.762C25.331 31.932 25.671 32.034 25.841 31.864C25.841 31.422 25.603 31.218 25.365 31.048C25.399 31.048 25.433 31.014 25.467 30.98C25.229 30.606 24.923 30.266 24.923 29.756C24.855 29.688 24.719 29.688 24.685 29.586C24.685 29.382 24.549 29.246 24.481 29.144C24.379 28.906 24.379 28.634 24.277 28.362C24.243 28.328 24.175 28.328 24.141 28.26C24.141 28.226 24.175 28.124 24.141 28.056C24.141 27.954 24.039 27.886 24.005 27.818C23.699 26.9 23.291 25.71 23.155 24.826C23.121 24.622 22.985 24.418 22.917 24.214C22.883 24.078 22.951 23.908 22.917 23.806C22.883 23.5 22.645 23.228 22.747 22.888C22.611 22.786 22.543 22.48 22.577 22.344C22.373 21.834 22.169 21.086 21.999 20.474C21.693 19.964 21.455 19.216 21.251 18.74C20.877 18.434 20.843 17.788 20.571 17.38C20.333 16.428 19.721 15.68 19.551 14.592C19.483 14.592 19.449 14.66 19.449 14.592C19.449 14.558 19.449 14.524 19.381 14.524C19.211 14.048 18.803 13.504 18.599 12.994C18.531 12.858 18.429 12.654 18.531 12.518C18.293 12.416 18.225 12.11 18.157 11.872C17.953 11.226 17.783 10.478 17.647 9.968C17.375 9.73 17.375 9.458 17.205 9.084C16.831 8.982 16.967 8.608 16.831 8.404C16.389 8.234 16.117 8.506 15.607 8.336C15.607 8.404 15.471 8.54 15.437 8.472ZM14.927 15.952C14.893 15.714 15.097 15.408 15.165 15.136C16.015 17.278 16.389 19.556 17.171 21.766C16.457 21.936 15.913 22.072 15.267 22.106C15.131 22.072 15.199 22.208 15.131 22.242C14.621 22.242 14.383 22.446 14.009 22.344C13.635 22.344 12.955 22.582 12.615 22.548C12.513 22.718 12.275 22.786 12.003 22.82C12.309 21.562 13.023 20.882 13.295 19.726C13.975 18.604 14.349 17.312 14.825 15.952C14.859 15.952 14.893 15.952 14.927 15.952Z" fill="#212121"/>
<path d="M50.7257 18.876C50.8957 18.706 51.0317 18.502 51.3037 18.468C51.2697 18.298 51.5077 18.298 51.5757 18.162C51.5757 18.128 51.5757 17.958 51.6097 17.89C51.6437 17.822 51.7457 17.822 51.7797 17.788C51.9497 17.414 51.9157 16.972 52.0517 16.53C52.4597 15.34 52.6297 14.184 52.6297 12.824C52.3917 11.77 51.8477 11.124 51.2357 10.342C50.9637 10.308 50.7597 10.172 50.6577 9.934C50.0117 9.628 49.3317 9.492 48.6857 9.152C47.6657 8.846 45.8977 8.2 44.5377 8.37C44.2317 8.438 43.9257 8.234 43.6537 8.234C43.1437 8.234 42.5997 8.37 42.2257 8.234C40.8997 8.574 39.1657 8.268 37.6017 8.54C37.1257 8.336 36.1397 8.37 35.8677 8.812C36.1737 9.696 36.0717 10.988 36.0717 11.838C36.3777 12.382 36.1737 13.572 36.3777 14.456C36.2417 15.17 36.4117 16.292 36.2757 17.074C36.2757 17.176 36.3777 16.972 36.3437 17.142C36.3097 17.516 36.3777 17.788 36.2757 18.026C36.3437 18.434 36.3777 18.876 36.3777 19.386C36.3097 22.548 36.2077 26.526 36.1397 29.96C36.0037 30.198 36.0037 30.572 36.1737 30.81C35.8677 31.15 35.8677 31.694 36.2417 32C37.1257 32 37.7717 31.864 38.9277 31.898C39.1657 32.102 39.6077 32 39.8117 32C41.1717 31.898 42.4977 32.17 43.5177 31.932C43.9597 32.136 44.7077 31.932 44.9797 31.932C45.3877 31.898 46.1697 31.694 46.6117 31.694C46.6797 31.694 46.6457 31.796 46.7137 31.762C47.3937 31.558 48.0057 31.49 48.6517 31.252C49.2977 30.98 50.1817 30.742 50.7257 30.436C50.9637 30.13 51.2357 29.858 51.5077 29.586C51.6777 29.518 51.7457 29.45 51.8817 29.314C52.2557 29.348 52.3577 28.906 52.6977 28.872C52.7657 28.702 52.9017 28.6 53.0377 28.6C53.0037 28.396 53.1397 28.43 53.2077 28.362C53.1737 28.328 53.1397 28.294 53.1397 28.26C53.2417 28.158 53.2417 27.954 53.3777 27.954C53.5817 27.41 53.7857 26.866 54.0237 26.39C54.0237 26.084 54.1257 25.778 54.2617 25.608C54.1937 24.928 54.2617 24.418 54.2277 23.704C54.2277 23.636 54.2957 23.67 54.3297 23.67C54.2617 23.534 54.2617 23.534 54.2277 23.364C54.1937 23.228 54.2617 23.194 54.2957 23.126C54.2277 22.548 53.9217 22.072 53.8197 21.596C53.7177 21.222 53.4797 20.984 53.2757 20.61C52.4257 20.066 51.8477 19.216 50.7257 18.876ZM42.1917 13.844C41.9537 13.368 42.4977 12.348 42.2597 11.736C43.0077 11.838 43.4497 11.634 43.9937 11.838C44.0957 11.838 44.0957 11.736 44.2317 11.77C44.3337 11.77 44.4357 11.77 44.5037 11.838C44.7417 11.77 45.2177 11.77 45.5577 11.872C45.8977 12.314 46.3057 12.824 46.6797 13.3C46.8497 13.504 46.9517 13.708 47.0877 13.912C47.3937 14.32 47.6657 14.49 47.6657 15.204C47.6657 15.646 47.5637 16.19 47.4957 16.632C47.4617 16.904 47.1897 17.04 47.0877 17.244C46.9517 17.278 46.8157 17.346 46.7137 17.448C45.1837 17.822 44.0617 18.162 42.4297 18.196C42.4297 17.924 42.4297 17.788 42.3957 17.482C41.9537 16.394 42.1237 15.238 42.0897 14.422C42.0897 14.184 41.9877 13.98 42.1917 13.844ZM48.4137 26.288C48.3457 26.628 48.0057 26.764 47.9377 27.172C47.5297 27.07 47.1897 27.546 46.9177 27.41C46.8497 27.41 46.8837 27.512 46.8497 27.512C45.5237 27.954 43.6537 27.75 42.2937 27.954C42.1917 27.444 42.1237 26.968 42.0897 26.526C42.0557 26.424 42.1577 26.424 42.2257 26.39C41.7497 25.37 41.8857 23.636 41.8857 22.412C42.5997 22.48 43.7217 22.412 44.5377 22.412C44.8097 22.412 45.4217 22.344 45.7277 22.412C45.8637 22.446 45.9997 22.582 46.1697 22.684C46.5437 22.888 47.1557 23.194 47.4957 23.5C47.6317 23.636 47.6997 23.874 47.8017 24.01C47.8357 24.044 47.9037 24.01 47.9377 24.078C48.0057 24.146 48.2097 24.724 48.2777 24.894C48.4137 25.302 48.5157 25.914 48.4137 26.288Z" fill="#212121"/>
<path d="M85.376 12.348C85.308 12.416 85.172 12.212 84.968 12.28C84.662 11.634 84.254 10.75 83.608 10.342C83.642 10.172 83.472 10.24 83.506 10.07C83.268 9.832 82.928 9.628 82.656 9.39C81.874 9.254 81.058 8.846 80.582 8.404C80.514 8.404 80.412 8.404 80.344 8.404C80.106 8.064 79.902 8.132 79.528 8.132C78.576 8.132 77.42 7.996 76.604 8.098C75.38 8.268 73.986 8.268 72.592 8.54C71.708 8.676 70.858 8.812 70.246 8.982C69.804 9.288 69.362 9.322 68.988 9.73C68.886 9.832 68.75 10.07 68.648 10.24C68.002 10.716 67.662 11.362 67.152 11.94C66.71 13.266 65.554 14.082 65.35 15.544C65.214 15.578 65.282 15.816 65.146 15.816C65.112 16.36 64.942 16.564 64.942 17.142C64.874 17.142 64.874 17.108 64.806 17.142C64.908 17.652 64.738 18.128 64.738 18.638C64.704 18.638 64.67 18.638 64.602 18.638C64.806 18.978 64.738 19.42 64.602 19.658C64.67 19.658 64.738 19.658 64.738 19.692C64.568 19.896 64.806 20.372 64.602 20.508C64.84 21.324 64.704 22.276 65.112 22.888C65.044 22.99 65.18 23.16 65.044 23.262C65.112 23.262 65.18 23.33 65.18 23.398C65.384 23.908 65.486 24.554 65.724 25.064C65.758 25.098 65.86 25.132 65.894 25.166C65.962 25.336 65.962 25.54 66.03 25.676C66.132 25.846 66.302 25.914 66.404 26.084C66.54 26.288 66.642 26.56 66.744 26.73C66.778 26.798 66.812 27.002 66.846 27.07C66.88 27.104 66.982 27.104 67.016 27.138C67.39 27.614 67.628 28.26 68.104 28.668C68.07 28.702 68.036 28.736 68.002 28.77C68.886 29.654 69.838 30.436 70.79 31.116C71.402 31.354 72.116 31.66 72.66 31.728C72.66 31.762 72.626 31.762 72.626 31.796C73.374 31.796 73.986 31.932 74.666 31.932C74.904 31.966 75.108 32.136 75.312 32.17C75.618 32.238 76.162 32.17 76.468 32.102C76.944 32 77.318 31.66 77.862 31.558C78.134 31.49 78.372 31.558 78.576 31.354C79.29 31.456 80.14 30.98 80.718 30.98C81.126 30.776 81.534 30.572 82.044 30.47C82.758 29.824 83.71 29.382 84.458 28.736C84.458 28.6 84.288 28.668 84.39 28.566C84.526 28.566 84.492 28.566 84.594 28.566C84.934 28.056 85.376 27.444 85.41 26.764C85.138 26.492 84.56 26.356 84.322 26.186C84.322 26.118 84.356 26.084 84.356 26.084C84.22 26.05 84.016 25.982 83.914 26.084C83.846 26.016 83.846 25.982 83.914 25.914C83.812 25.914 83.71 25.914 83.608 25.914C83.506 25.812 83.608 25.812 83.54 25.676C83.302 25.574 83.03 25.744 83.098 25.506C82.248 25.574 81.942 24.792 81.092 24.758C81.058 24.996 80.854 25.064 80.888 25.37C80.65 25.37 80.616 25.54 80.514 25.642C80.446 25.71 80.276 25.744 80.242 25.812C80.208 25.846 80.242 25.914 80.208 25.948C80.072 26.05 79.868 26.084 79.8 26.288C78.576 26.968 77.522 27.274 76.162 27.444C76.162 27.376 76.23 27.376 76.196 27.274C74.904 27.41 73.952 26.866 73.102 26.424C72.184 25.914 71.164 25.574 70.756 24.69C69.974 24.112 69.362 23.024 68.682 22.208C68.716 22.106 68.682 22.106 68.784 22.004C68.512 21.63 68.58 20.542 68.682 19.794C68.614 19.624 68.58 18.978 68.716 18.842C68.614 18.434 69.022 18.162 69.192 17.788C69.328 17.38 69.362 17.074 69.566 16.768C70.008 16.02 70.484 15.442 71.096 15C71.13 14.524 71.912 14.388 72.014 13.946C72.388 13.878 72.592 13.436 72.966 13.232C73.578 12.926 74.87 12.62 75.448 12.96C76.808 13.334 78.202 13.708 78.712 14.932C78.814 15.034 78.984 15.068 79.018 15.102C79.188 15.408 79.154 15.952 79.46 16.122C80.412 15.816 81.228 15.374 82.078 14.932C82.316 14.83 82.52 14.694 82.792 14.626C82.792 14.592 82.758 14.524 82.826 14.524C83.2 14.354 83.472 14.184 83.71 14.014C83.778 13.946 83.914 13.912 83.982 13.844C84.254 13.64 84.356 13.368 84.56 13.198C84.866 12.926 85.478 12.858 85.376 12.348Z" fill="#212121"/>
<path d="M94.0795 31.932C94.3515 31.898 94.6235 31.864 94.8955 31.83C95.7795 32.204 96.7315 31.932 97.6835 31.864C98.4655 31.796 99.2815 31.864 100.063 31.796C101.219 31.66 103.089 31.592 104.143 31.728C104.789 31.558 105.435 31.762 106.013 31.66C106.115 31.66 106.183 31.558 106.285 31.558C106.965 31.456 107.611 31.592 108.291 31.422C108.733 31.32 109.175 31.082 109.583 30.98C109.685 30.946 109.821 30.946 109.889 30.912C110.365 30.742 110.739 30.368 111.317 30.3C111.555 30.096 111.691 29.79 112.031 29.722C112.099 29.416 112.337 29.382 112.541 29.246C113.085 28.94 113.629 28.43 114.071 28.056C114.445 27.308 114.683 26.458 115.125 25.778C115.125 25.2 115.771 24.69 115.669 24.078C115.805 23.874 115.907 23.5 115.975 23.228C116.009 23.126 115.907 23.024 115.941 22.956C115.941 22.854 116.077 22.752 116.077 22.65C116.315 21.664 116.315 20.644 115.975 19.998C116.043 19.998 116.077 19.964 116.077 19.93C115.873 19.216 115.975 18.162 115.805 17.312C115.805 17.176 115.703 16.802 115.703 16.802C115.601 16.598 115.397 16.428 115.295 16.224C115.227 16.02 115.159 15.68 115.125 15.442C115.023 14.966 114.853 14.184 114.649 13.742C114.547 13.504 114.343 13.266 114.173 13.028C114.037 12.79 113.765 12.348 113.765 12.178C113.051 11.634 112.609 10.92 111.929 10.546C111.929 10.478 111.929 10.444 111.929 10.376C111.623 10.41 111.623 10.104 111.351 10.104C111.351 10.07 111.385 10.07 111.385 10.002C111.147 9.968 110.943 9.798 110.909 9.696C110.399 9.526 110.127 9.186 109.549 9.084C108.801 8.982 107.951 8.88 107.135 8.778C107.067 8.778 106.999 8.676 106.897 8.676C106.319 8.54 105.605 8.608 104.891 8.608C103.701 8.54 102.511 8.37 101.457 8.438C100.539 8.472 99.6895 8.268 98.8395 8.234C98.3975 8.234 97.9895 8.336 97.5475 8.234C97.0715 8.404 96.5275 8.438 95.8475 8.438C95.2355 8.064 94.4875 8.234 93.9095 8.54C94.1475 8.812 94.0795 9.254 94.1475 9.628C94.0795 9.866 94.1475 9.934 94.1475 10.104C94.2495 11.532 94.2155 13.096 94.3855 14.592C94.4195 14.796 94.4875 15.17 94.4875 15.51C94.5555 16.564 94.5555 17.754 94.4535 18.944C94.5895 19.692 94.5215 20.44 94.4875 21.188C94.4875 21.698 94.5215 22.31 94.4535 22.752C94.4535 22.82 94.3855 22.888 94.3515 22.956C94.4535 22.922 94.3855 23.092 94.4535 23.092C94.2155 24.248 94.4535 25.404 94.2495 26.526C94.1135 27.41 94.1475 28.328 94.0795 29.28C94.0455 29.892 93.9095 30.538 93.9775 31.184C93.8415 31.422 93.9095 31.592 93.8415 31.66C93.9435 31.728 93.9435 31.898 94.0795 31.932ZM103.905 27.036C102.443 27.24 100.947 27.376 99.3835 27.342C99.4515 27.342 99.4855 27.342 99.5195 27.342C99.3835 27.342 99.4175 27.138 99.3155 27.07C99.3495 26.05 99.2815 24.588 99.3835 23.5C99.1795 23.024 99.3835 22.378 99.2475 21.868C99.4855 21.596 99.2475 21.188 99.2135 20.848C99.1455 20.338 99.1795 19.76 99.0435 19.318C99.1115 19.284 99.1115 19.216 99.1795 19.182C99.3495 17.074 98.5675 14.932 98.7715 13.028C99.7235 12.926 100.777 12.824 101.797 12.722C102.205 12.688 102.681 12.586 103.055 12.654C103.293 12.654 103.463 12.858 103.667 12.926C104.109 13.028 104.653 12.688 104.993 12.96C105.129 12.994 105.061 12.858 105.197 12.858C105.741 12.994 106.285 13.13 106.863 13.096C108.121 13.096 108.869 13.844 109.991 14.15C109.991 14.218 109.957 14.218 109.957 14.286C110.161 14.32 110.535 14.558 110.637 14.762C110.671 14.83 110.603 14.966 110.637 15C110.705 15.136 110.875 15.17 110.909 15.238C111.045 15.442 111.045 15.646 111.113 15.918C111.147 16.054 111.283 16.19 111.317 16.36C111.453 17.142 111.453 18.366 111.453 19.318C111.453 20.134 111.555 20.95 111.385 21.664C111.215 22.242 110.739 22.582 110.569 23.092C110.603 23.16 110.671 23.194 110.637 23.33C110.331 23.738 109.889 24.112 109.481 24.452C109.039 24.86 108.393 25.336 107.815 25.608C107.543 25.71 107.101 25.914 106.897 26.016C106.863 26.05 106.931 26.084 106.863 26.152C106.727 26.254 106.489 26.22 106.285 26.288C106.183 26.322 106.115 26.458 106.013 26.492C105.707 26.628 105.231 26.73 104.891 26.832C104.585 26.9 104.211 27.002 103.905 27.036Z" fill="#212121"/>
<path d="M141.729 8.404C141.661 8.438 141.593 8.438 141.661 8.506C140.913 8.132 140.267 8.336 139.485 8.336C139.383 8.336 139.247 8.268 139.111 8.268C138.771 8.268 138.261 8.37 137.955 8.336C137.445 8.234 136.595 8.506 135.881 8.506C135.677 8.54 135.473 8.404 135.303 8.404C134.487 8.404 133.637 8.506 132.889 8.506C132.243 8.54 131.597 8.472 131.019 8.472C130.509 8.506 130.101 8.574 129.761 8.438C129.353 8.676 129.047 8.574 128.571 8.642C128.469 8.642 128.469 8.54 128.401 8.506C128.061 8.676 127.721 8.54 127.449 8.37C127.211 8.438 126.837 8.302 126.531 8.472C126.395 8.268 126.191 8.404 126.021 8.404C126.021 8.982 126.395 10.07 126.259 10.92C126.429 11.702 126.429 12.858 126.429 13.708C126.429 14.252 126.463 14.864 126.429 15.442C126.327 16.564 126.225 17.584 126.361 18.672C126.293 18.74 126.293 18.842 126.225 18.91C126.395 19.352 126.089 19.964 126.259 20.406C126.157 20.848 126.225 21.392 126.225 21.8C126.225 21.936 126.157 22.106 126.157 22.31C126.191 23.262 126.123 24.554 126.157 25.676C126.157 26.322 126.259 26.968 126.225 27.546C126.191 27.988 126.089 28.464 126.089 28.906C126.089 28.974 126.157 29.076 126.157 29.144C126.123 29.722 126.021 30.334 125.817 30.844C125.919 31.014 126.157 31.014 126.191 31.218C126.463 31.116 126.599 31.32 126.701 31.354C126.803 31.422 127.007 31.388 127.143 31.422C127.313 31.49 127.449 31.592 127.585 31.626C128.095 31.762 128.639 31.592 129.319 31.626C129.829 31.66 130.475 31.83 130.951 31.864C131.665 31.796 132.379 32 133.127 32C134.963 32.034 137.037 32.034 138.737 31.966C138.975 31.966 139.247 32.068 139.451 32.068C139.757 32.034 140.029 31.898 140.301 31.898C140.879 31.864 141.491 31.966 142.035 31.932C142.715 31.898 143.565 32.102 143.701 31.626C143.837 31.592 143.769 31.762 143.905 31.728C143.973 31.626 144.211 31.66 144.279 31.524C144.177 30.334 143.361 29.586 143.361 28.26C142.851 27.784 143.055 27.07 142.851 26.322C142.375 25.88 141.933 26.322 141.389 26.152C141.287 26.254 141.185 26.322 141.049 26.39C140.335 26.492 139.553 26.798 138.771 26.832C138.329 26.866 137.785 26.866 137.377 26.832C136.357 26.832 135.337 26.934 134.351 26.934C133.365 26.9 132.481 27.002 131.563 27.036C131.529 26.492 131.427 26.152 131.597 25.71C131.359 24.656 131.427 22.616 131.427 21.392C132.277 21.562 133.093 21.29 133.909 21.188C134.113 21.154 134.351 21.188 134.555 21.188C134.895 21.12 135.167 20.984 135.473 20.95C136.051 20.848 136.731 20.78 137.275 20.882C137.615 20.916 137.853 21.222 138.261 21.086C138.329 21.29 138.601 21.392 138.805 21.256C138.941 20.95 138.567 20.61 138.635 20.202C138.703 19.964 138.805 19.726 138.737 19.352C138.737 19.284 138.907 19.352 138.907 19.284C138.805 19.318 138.805 19.216 138.771 19.182C139.077 18.434 138.941 17.72 139.315 16.972C138.941 16.598 138.261 16.802 137.853 16.598C137.819 16.666 137.887 16.7 137.853 16.7C137.377 16.564 137.071 16.632 136.561 16.53C134.861 17.108 132.821 16.87 131.189 17.21C131.121 16.054 131.223 15.272 131.121 14.082C131.223 14.048 131.121 13.81 131.257 13.81C131.019 13.742 131.087 13.368 131.155 13.198C130.917 12.858 131.257 12.586 131.019 12.348C131.053 12.348 131.053 12.314 131.053 12.28C131.801 11.94 132.719 12.212 133.603 12.212C134.555 12.246 135.473 12.144 136.255 12.076C136.731 11.974 137.343 12.008 137.921 11.906C137.955 12.008 137.819 12.042 137.955 12.042C138.329 12.076 138.839 12.008 139.179 12.076C139.417 12.11 139.281 12.144 139.485 12.11C140.301 12.042 141.321 12.382 142.035 12.314C142.375 11.736 142.477 11.26 142.375 10.614C142.443 10.444 142.579 10.342 142.647 10.206C142.613 10.104 142.511 10.036 142.511 9.9C142.545 9.832 142.647 9.832 142.647 9.764C142.375 9.628 142.545 9.39 142.579 9.186C142.613 9.016 142.545 8.778 142.579 8.642C142.307 8.404 141.797 8.506 141.729 8.404Z" fill="#212121"/>
<path d="M167.395 22.004C167.361 22.038 167.361 22.072 167.293 22.106C167.259 21.562 167.599 21.358 167.429 20.848C167.667 20.916 167.327 20.508 167.633 20.508C167.633 20.372 167.497 20.44 167.531 20.304C167.565 20.202 167.701 20.066 167.735 19.862C167.803 19.522 167.803 19.25 167.735 18.978C167.701 18.808 167.735 18.57 167.667 18.468C167.429 18.23 166.681 18.4 166.443 18.536C165.253 18.366 163.519 18.706 161.989 18.808C162.091 18.264 161.989 17.516 162.159 17.142C162.023 16.972 162.057 16.53 162.091 16.122C162.125 15.68 162.193 15.17 162.295 14.966C162.159 14.898 162.261 14.32 162.363 14.184C163.281 14.116 164.471 13.912 165.185 14.15C165.219 14.116 165.321 14.116 165.355 14.048C166.273 14.218 167.497 14.252 168.381 14.354C168.993 14.422 169.503 14.592 170.081 14.558C170.115 14.592 170.115 14.694 170.183 14.728C170.319 14.694 170.319 14.728 170.455 14.66C170.863 14.932 172.019 14.558 172.291 15.136C172.393 15.068 172.529 15 172.631 14.966C172.631 14.83 172.699 14.762 172.665 14.626C172.767 14.626 172.767 14.592 172.835 14.592C173.039 14.082 173.107 13.436 173.379 12.926C173.209 12.96 173.413 12.688 173.311 12.62C173.481 12.314 173.413 12.042 173.515 11.566C173.685 11.294 173.855 10.682 173.923 10.308C173.957 10.274 174.025 10.308 174.025 10.24C173.923 9.73 173.991 9.254 173.957 8.506C173.651 8.302 173.141 8.336 172.869 8.506C172.563 8.302 172.087 8.472 171.747 8.336C170.965 8.506 170.183 8.438 169.333 8.404C169.061 8.37 168.517 8.472 168.551 8.37C168.449 8.404 168.347 8.404 168.211 8.404C167.701 8.268 167.157 8.336 166.613 8.336C166.477 8.302 166.375 8.234 166.239 8.234C165.695 8.234 165.117 8.472 164.845 8.234C164.845 8.37 164.675 8.336 164.607 8.404C162.601 8.268 161.071 8.88 159.167 8.54C158.521 8.88 157.807 8.37 157.263 8.744C157.127 8.642 157.025 8.71 156.889 8.676C156.787 8.846 156.923 8.982 156.957 9.118C157.127 9.832 157.059 10.648 157.127 11.566C157.229 13.606 157.365 15.646 157.229 17.414C157.263 19.692 157.263 22.004 156.991 24.01C157.229 24.112 156.991 24.316 156.991 24.418C156.991 24.486 157.059 24.554 157.059 24.622C157.093 25.132 156.889 25.608 156.889 26.084C156.889 26.05 156.923 26.254 156.923 26.254C156.923 26.968 156.753 27.648 156.855 28.294C156.685 29.042 156.753 29.654 156.651 30.368C156.753 30.368 156.719 30.47 156.753 30.504C156.515 30.81 156.549 30.98 156.481 31.32C156.821 31.558 157.195 31.388 157.467 31.49C157.569 31.558 157.637 31.66 157.773 31.728C157.773 31.728 157.875 31.66 157.909 31.694C158.011 31.728 158.011 31.796 158.079 31.796C158.317 31.864 158.623 31.864 158.929 32.034C159.405 31.762 160.289 32 160.867 31.728C161.003 31.66 161.003 31.49 161.207 31.422C160.969 31.116 161.139 30.844 161.173 30.504C161.173 30.436 161.105 30.334 161.105 30.266C161.071 29.994 161.207 29.722 161.207 29.45C161.207 29.314 161.105 29.11 161.139 28.94C161.173 28.396 161.275 28.022 161.309 27.682C161.241 27.24 161.275 26.696 161.445 26.356C161.309 25.268 161.649 24.452 161.581 23.5C162.023 23.432 162.567 23.466 162.839 23.262C163.213 23.398 163.655 23.262 164.097 23.228C164.947 23.228 165.865 23.398 166.647 23.262C166.783 23.262 166.749 23.398 166.919 23.364C166.919 23.296 166.987 23.296 167.055 23.296C167.293 22.854 167.293 22.446 167.395 22.004Z" fill="#212121"/>
<path d="M201.916 16.666C201.95 16.666 201.95 16.53 201.984 16.598C201.984 16.632 202.018 16.666 202.018 16.598C202.018 16.564 201.95 16.564 201.95 16.496C202.256 16.462 202.358 16.564 202.494 16.7C202.698 16.768 202.664 16.564 202.766 16.53C202.8 16.564 202.834 16.632 202.868 16.666C203.242 16.088 204.194 16.36 204.568 15.816C204.398 15.544 204.228 15.034 204.466 14.762C204.398 14.626 204.364 14.456 204.466 14.354C204.364 14.082 204.16 13.47 204.126 13.164C203.888 13.062 203.82 12.79 203.718 12.586C203.684 12.552 203.548 12.586 203.548 12.518C202.97 11.634 202.528 10.886 201.882 10.104C201.712 9.968 201.372 9.934 201.236 9.764C201.202 9.764 201.236 9.662 201.236 9.662C200.59 9.254 199.57 9.016 198.924 8.744C198.55 8.574 198.176 8.642 197.734 8.54C197.598 8.506 197.462 8.404 197.326 8.404C196.816 8.302 196.17 8.438 195.864 8.2C194.844 8.302 193.79 8.234 192.702 8.438C191.682 8.608 190.832 8.982 190.084 9.322C189.846 9.458 189.506 9.628 189.234 9.594C189.2 9.73 188.996 9.73 188.894 9.866C187.466 10.478 186.684 12.11 185.936 13.198C185.97 13.334 185.902 13.334 185.902 13.47C185.46 13.81 185.46 14.796 185.018 15C184.984 15.068 185.052 15.068 185.086 15.102C184.542 16.122 184.406 17.448 184.202 18.604C184.236 20.236 184.236 22.344 184.848 23.772C185.766 25.472 186.922 26.968 188.316 28.158C188.656 28.736 189.336 29.314 190.084 29.654C190.628 30.164 191.342 30.708 192.192 30.708C192.294 30.98 192.668 31.082 192.838 31.184C193.11 31.32 193.416 31.49 193.722 31.524C194.402 31.592 195.252 31.32 195.83 31.524C196.442 31.184 197.87 31.388 198.55 31.048C198.618 30.776 199.434 30.81 199.74 30.674C199.944 30.402 200.624 30.232 201.168 30.13C201.27 30.708 201.236 31.626 201.542 32.136C201.406 32.238 201.542 32.408 201.44 32.544C202.63 32.884 203.956 32.476 205.146 32.476C205.35 32.34 205.69 32.238 205.69 32C205.656 31.966 205.554 31.966 205.554 31.898C205.554 31.694 205.452 31.592 205.486 31.422C205.248 31.354 205.316 31.15 205.316 31.014C205.316 30.606 205.044 30.13 205.146 29.756C205.044 29.552 204.908 29.314 205.01 29.144C204.908 28.736 204.84 28.328 204.84 27.92C204.806 27.648 204.908 27.41 204.942 27.138C204.976 26.662 204.908 26.084 204.942 25.54C204.976 24.52 204.976 23.942 204.908 23.024C205.18 22.072 204.806 21.358 205.01 20.712C204.976 20.678 204.942 20.644 204.942 20.61C203.786 20.406 202.426 20.508 201.27 20.61C199.332 20.746 197.462 20.576 195.558 20.678C195.49 20.882 195.626 20.882 195.592 21.12C195.456 21.358 195.524 21.596 195.524 21.97C195.524 22.616 195.252 23.364 195.456 24.078C195.626 24.214 195.83 24.112 196.034 24.078C196.136 24.112 196.238 24.146 196.306 24.214C197.972 24.01 199.4 23.942 200.76 23.908C200.658 24.248 200.794 24.554 200.692 24.86C200.352 24.996 200.114 25.234 199.808 25.37C199.23 25.37 198.55 25.88 198.006 25.778C198.006 25.812 198.006 25.88 197.972 25.88C197.428 26.016 196.918 26.186 196.306 26.22C195.592 26.39 194.81 26.662 194.028 26.594C193.11 26.56 192.532 25.948 191.784 25.778C191.342 25.166 190.594 24.792 190.05 24.282C189.982 24.078 189.88 24.01 189.778 23.84C189.71 23.704 189.642 23.534 189.574 23.398C189.506 23.16 189.404 23.024 189.37 22.854C189.234 22.446 189.302 22.072 189.336 21.766C189.37 21.426 189.132 21.018 189.37 20.814C189.302 20.814 189.268 20.78 189.234 20.746C189.404 19.522 189.642 18.502 189.472 17.448C189.54 17.278 189.642 17.176 189.608 16.938C190.084 16.19 190.492 15.442 190.934 14.66C191.512 14.286 191.988 13.844 192.702 13.606C192.77 13.606 192.77 13.674 192.804 13.674C192.804 13.572 192.872 13.538 192.94 13.504C193.722 13.232 194.436 12.892 195.286 12.892C196.204 12.892 196.918 13.402 197.7 13.674C198.04 13.81 198.38 13.844 198.72 14.014C198.822 14.286 199.162 14.286 199.23 14.558C199.638 14.558 199.706 15 199.978 15.306C200.114 15.408 200.216 15.442 200.284 15.578C200.522 15.952 200.386 16.326 200.556 16.7C200.896 16.768 201.236 16.7 201.61 16.7C201.61 16.632 201.542 16.598 201.61 16.564C201.678 16.564 201.644 16.7 201.712 16.7C201.78 16.666 201.712 16.53 201.78 16.53C201.78 16.632 201.814 16.666 201.916 16.666Z" fill="#212121"/>
<path d="M233.266 31.728C233.198 31.728 233.13 31.728 233.13 31.762C233.232 31.864 233.3 31.694 233.402 31.66C233.402 30.912 233.64 30.232 233.402 29.552C233.402 29.28 233.47 28.94 233.368 28.702C233.538 28.532 233.606 28.056 233.538 27.75C233.538 27.682 233.64 27.75 233.64 27.648C233.708 26.424 233.776 25.506 233.878 24.554C233.878 24.18 233.708 23.806 233.708 23.364C233.742 23.228 233.81 23.092 233.844 22.956C233.844 22.82 233.742 22.65 233.776 22.48C233.776 22.446 233.878 22.344 233.878 22.344C233.946 21.936 233.912 21.392 233.946 20.916C234.014 20.27 234.082 19.726 234.048 19.284C234.422 18.4 234.252 16.768 234.456 15.918C234.354 15.612 234.49 15 234.66 14.626C234.524 13.878 234.932 13.028 234.83 12.11C235 11.974 235.102 11.668 234.966 11.498C235.17 11.43 235.034 11.158 235.068 10.852C235.102 10.818 235.136 10.852 235.17 10.852C234.966 10.444 235.238 9.866 235 9.526C235.136 9.458 235.102 9.254 235.238 9.186C235.204 8.88 234.66 8.744 234.354 8.71C234.116 8.642 233.878 8.71 233.606 8.71C233.402 8.676 233.164 8.574 232.96 8.574C231.396 8.506 229.662 8.642 228.54 8.71C228.506 8.914 228.574 9.186 228.71 9.288C228.574 9.968 228.676 10.648 228.676 11.362C228.676 11.532 228.676 11.736 228.54 11.872C228.71 12.144 228.472 12.654 228.608 12.994C228.506 12.994 228.472 13.062 228.438 13.13C228.472 13.164 228.574 13.13 228.54 13.232C228.608 13.64 228.506 14.048 228.54 14.626C228.438 14.796 228.506 15 228.506 15.204C228.506 15.272 228.404 15.238 228.438 15.34C228.506 15.408 228.506 15.578 228.506 15.68C228.506 15.952 228.506 16.632 228.438 16.938C228.404 17.074 228.506 17.516 228.37 17.754C228.268 17.686 228.166 17.618 228.064 17.584C227.248 17.38 226.432 17.516 225.65 17.516C225.548 17.516 225.378 17.482 225.276 17.482C224.46 17.244 223.338 17.278 222.386 17.244C222.522 16.36 222.42 15.102 222.522 14.32C222.42 12.756 222.726 10.648 222.76 8.574C222.488 8.506 222.25 8.37 222.08 8.574C221.91 8.54 221.808 8.472 221.672 8.438C221.264 8.268 220.822 8.404 220.346 8.37C219.972 8.37 219.564 8.2 219.224 8.268C219.088 8.302 219.02 8.404 218.884 8.438C218.816 8.438 218.816 8.336 218.816 8.336C218.612 8.302 218.272 8.37 218.136 8.37C217.728 8.404 217.218 8.234 216.776 8.336C216.708 9.968 216.572 11.498 216.436 13.028C216.47 13.062 216.538 13.028 216.538 13.096C216.606 13.436 216.504 13.708 216.436 14.116C216.708 14.524 216.402 15.068 216.47 15.476C216.334 15.714 216.538 16.156 216.334 16.428C216.334 17.074 216.266 18.06 216.198 18.468C216.334 18.706 216.164 18.808 216.266 19.012C216.13 19.522 216.266 20.168 216.198 20.814C216.198 20.882 216.096 20.95 216.096 21.052C216.028 21.562 216.13 22.31 216.096 22.752C215.994 23.568 216.062 24.622 215.892 25.54C215.824 25.914 215.79 26.22 215.722 26.56C215.586 27.512 215.212 28.43 215.11 29.382C215.076 29.688 215.178 29.994 215.008 30.266C215.042 30.742 214.736 31.048 214.77 31.49C214.872 31.558 215.042 31.728 215.178 31.796C215.246 31.83 215.484 31.728 215.382 31.898C216.334 31.83 217.082 31.796 218.034 31.558C218 31.728 218.102 31.524 218.102 31.66C218.272 31.694 218.068 31.558 218.17 31.558C219.156 31.592 220.584 31.694 221.57 31.558C221.672 31.422 221.74 31.388 221.842 31.184C221.502 30.708 221.536 30.3 221.332 29.79C221.536 28.94 221.502 27.988 221.536 27.036C221.536 26.152 221.502 25.064 221.638 24.01C221.876 23.33 221.774 22.582 222.08 22.072C221.978 21.834 222.216 21.562 222.114 21.358C223.508 20.916 225.174 21.188 226.5 21.426C226.5 21.494 226.534 21.494 226.5 21.562C227.078 21.494 227.656 21.732 228.132 21.936C228.132 22.208 227.996 22.548 228.064 22.99C227.826 24.214 227.962 25.37 227.826 26.73C227.622 26.764 227.792 26.764 227.792 26.866C227.758 27.036 227.724 27.308 227.69 27.546C227.588 28.736 227.52 29.654 227.52 30.436C227.418 30.47 227.486 30.606 227.35 30.572C227.452 30.878 227.146 31.218 227.316 31.626C227.52 31.626 227.418 31.592 227.384 31.728C227.554 31.626 227.52 31.83 227.656 31.83C227.962 31.762 228.336 31.796 228.506 31.932C230.172 32.068 231.43 32.204 232.858 31.66C232.858 31.694 232.79 31.728 232.79 31.762C232.926 31.796 233.13 31.66 233.266 31.728Z" fill="#212121"/>
<path d="M264.757 8.506C264.621 8.336 264.213 8.2 264.043 8.404C262.479 7.962 260.915 8.642 259.351 8.574C259.181 8.574 259.011 8.608 258.875 8.574C256.835 8.472 254.659 8.812 252.551 8.778C250.103 8.744 247.587 8.982 245.309 9.05C245.173 8.982 245.037 8.948 244.935 9.05C245.139 10.308 245.139 11.328 245.377 12.45C245.343 12.756 245.275 13.164 245.547 13.47C245.479 13.47 245.445 13.436 245.411 13.436C245.445 13.64 245.445 13.708 245.411 13.912C245.615 14.116 245.785 14.014 246.023 13.98C247.757 13.81 249.899 14.184 251.429 14.286C251.531 14.252 251.633 14.218 251.735 14.184C251.905 14.524 252.755 14.388 253.129 14.456C253.027 16.156 252.959 17.856 252.891 19.59C252.891 19.828 252.925 20.134 252.857 20.338C252.823 20.474 252.857 20.542 252.857 20.712C252.857 21.664 252.721 23.126 252.721 23.942C252.721 24.622 252.857 25.472 252.857 26.22C252.891 26.594 252.993 27.138 252.823 27.206C252.891 27.206 252.925 27.206 252.959 27.24C252.211 27.444 251.293 27.002 250.987 27.24C250.919 27.206 250.953 27.104 250.817 27.104C249.865 27.002 249.321 27.036 248.607 26.866C248.505 26.9 248.437 26.968 248.267 26.934C247.587 26.662 246.601 26.628 245.989 26.39C245.921 26.424 245.819 26.492 245.751 26.526C245.683 26.764 245.751 26.9 245.547 27.036C245.377 28.056 245.751 29.484 245.343 30.436C245.581 30.844 245.275 31.252 245.241 31.728C245.479 32 245.819 31.864 246.227 31.864C246.329 32 246.533 32 246.737 31.966C246.975 31.932 247.111 31.898 247.315 31.898C247.893 31.83 249.049 31.796 249.933 31.796C251.259 31.83 252.483 31.966 253.605 31.728C254.047 31.864 254.557 31.83 255.101 31.796C255.101 31.864 255.101 31.932 255.169 31.932C255.475 31.932 255.815 31.898 256.019 32.034C256.223 31.83 256.529 32 256.801 32.034C257.175 32.068 257.583 32 258.093 31.966C258.807 31.898 259.555 32.102 259.895 31.966C260.031 31.932 260.031 32.034 260.099 32.034C260.643 31.762 261.561 32.034 262.139 31.66C262.309 31.898 262.479 31.694 262.853 31.728C263.091 31.456 263.465 31.898 263.805 31.626C263.941 31.048 264.247 30.504 264.587 30.062C264.587 29.11 264.689 28.668 264.723 27.614C264.519 27.478 264.247 27.376 264.111 27.206C263.975 27.206 263.907 27.308 263.737 27.274C263.703 27.206 263.839 27.138 263.703 27.172C261.799 27.444 260.269 27.444 258.603 27.274C258.739 26.356 258.365 25.472 258.229 24.486C258.229 24.248 258.263 23.874 258.195 23.704C258.195 23.67 258.093 23.704 258.093 23.636C258.025 23.296 258.025 22.99 257.991 22.582C257.889 21.834 257.855 21.154 257.787 20.372C257.719 19.556 257.821 18.672 257.651 17.788C257.651 17.72 257.515 17.754 257.515 17.686C257.515 16.53 257.209 15.714 257.345 14.49C258.059 14.558 259.011 14.49 259.759 14.524C259.793 14.524 259.793 14.592 259.793 14.626C259.929 14.66 259.827 14.49 259.997 14.524C260.507 14.456 261.425 14.456 262.105 14.422C262.241 14.388 262.377 14.422 262.445 14.286C262.445 14.354 262.445 14.422 262.513 14.422C262.649 14.456 262.581 14.32 262.683 14.286C263.057 14.49 263.567 14.388 263.975 14.592C264.043 14.49 264.179 14.456 264.281 14.388C264.451 13.912 264.519 13.47 264.451 13.13C264.553 12.892 264.451 12.62 264.485 12.382C264.485 12.11 264.655 11.838 264.655 11.566C264.689 11.464 264.621 11.362 264.621 11.226C264.723 10.478 264.995 9.764 264.621 9.186C264.689 9.05 264.723 8.948 264.621 8.846C264.655 8.744 264.723 8.608 264.757 8.506Z" fill="#212121"/>
<path d="M291.363 8.608C291.159 8.574 291.159 8.336 291.023 8.2C290.887 8.064 290.411 8.268 290.037 8.268C289.901 8.234 289.765 8.132 289.663 8.132C289.493 8.132 289.289 8.268 289.085 8.302C288.439 8.404 287.589 8.404 287.249 8.472C287.249 8.438 287.317 8.438 287.317 8.404C287.079 8.574 286.365 8.268 286.161 8.676C286.399 9.934 286.331 11.158 286.365 12.45C286.365 12.79 286.399 13.3 286.365 13.64C286.331 13.81 286.365 13.776 286.399 13.946C286.569 15.102 286.365 16.462 286.637 17.652C286.535 19.556 286.501 21.392 286.569 23.364C286.603 23.67 286.603 23.942 286.637 24.248C286.637 25.404 286.297 26.22 285.957 27.24C285.923 27.308 285.821 27.342 285.753 27.41C285.923 27.478 285.719 27.648 285.651 27.682C285.209 27.818 284.461 27.172 283.883 27.308C283.101 26.9 282.455 26.458 281.537 26.254C281.469 25.982 281.061 25.982 280.891 25.88C281.129 25.846 280.891 25.88 280.857 25.846C280.789 25.778 280.619 25.438 280.517 25.404C280.347 25.336 280.211 25.37 280.075 25.404C280.075 25.608 280.007 25.676 280.075 25.846C279.667 25.914 279.633 26.492 279.259 26.492C279.225 26.696 279.191 26.662 279.259 26.832C279.157 26.968 279.055 27.036 279.055 27.24C278.477 27.546 278.409 28.362 277.967 28.804C278.103 29.008 277.797 29.11 277.899 29.382C278.001 29.45 278.001 29.586 278.205 29.552C278.579 30.198 279.463 30.334 280.007 30.81C280.211 30.81 280.619 31.116 280.619 31.218C280.755 31.15 280.721 31.218 280.891 31.218C281.061 31.388 281.367 31.456 281.469 31.558C282.863 31.558 284.189 32.034 285.481 31.932C286.433 32.34 287.521 31.966 288.541 31.762C288.745 31.422 289.051 31.354 289.459 31.252C289.901 31.15 290.275 30.844 290.513 30.504C290.581 30.232 290.751 29.994 290.921 29.824C291.669 28.328 291.533 25.914 291.295 24.622C291.397 24.452 291.397 24.146 291.295 23.976C291.465 23.262 291.329 22.684 291.499 21.97C291.499 21.902 291.397 21.97 291.363 21.902C291.431 21.732 291.397 21.63 291.363 21.426C291.431 21.324 291.465 21.222 291.499 21.12C291.431 20.032 291.567 18.876 291.601 17.686C291.635 17.278 291.533 16.87 291.499 16.428C291.465 16.054 291.499 15.612 291.499 15.17C291.431 14.014 291.635 12.824 291.465 11.668C291.431 11.498 291.499 11.26 291.499 11.056C291.499 10.92 291.397 10.818 291.363 10.682C291.329 10.036 291.397 9.254 291.363 8.608Z" fill="#212121"/>
<path d="M323.705 9.56C323.671 9.424 323.637 9.322 323.637 9.152C323.501 9.22 323.501 9.118 323.501 9.016C322.889 8.88 322.413 8.608 321.699 8.54C321.257 8.132 320.237 8.608 319.591 8.166C319.387 8.268 319.047 8.2 318.945 8.404C318.979 8.574 318.809 8.812 318.639 8.914C318.231 9.968 317.653 10.75 317.041 11.668C316.871 12.178 316.429 12.722 316.021 13.13C315.035 14.456 313.845 15.884 312.791 17.278C312.383 17.414 312.009 17.652 311.567 17.754C311.465 17.346 311.635 17.04 311.465 16.564C311.669 16.258 311.329 15.714 311.533 15.306C311.295 14.83 311.533 14.286 311.567 13.844C311.567 13.776 311.499 13.674 311.499 13.606C311.499 13.096 311.465 12.518 311.499 12.008C311.499 11.328 311.567 10.58 311.499 9.968C311.431 9.526 311.193 9.084 311.363 8.574C311.091 8.268 310.513 8.336 310.275 8.506C309.901 8.234 309.391 8.472 309.051 8.54C308.643 8.574 308.235 8.506 307.895 8.54C307.215 8.608 306.671 8.608 306.059 8.506C305.923 8.642 305.991 8.778 305.889 8.88C306.093 9.084 306.025 9.424 306.025 9.764C306.025 10.546 306.161 11.464 306.059 11.94C306.127 12.212 306.263 12.926 306.059 13.13C306.161 13.232 306.161 13.504 306.161 13.742C306.161 14.048 306.127 14.388 306.059 14.524C306.127 14.762 306.161 15.17 306.059 15.34C306.093 16.224 306.297 17.38 306.059 18.502C306.229 19.182 306.161 20.168 306.195 20.542C306.263 21.086 306.127 21.528 306.093 21.97C306.093 21.97 306.195 22.14 306.161 22.174C306.093 22.344 306.127 22.174 306.127 22.412C306.161 22.752 306.025 23.16 305.991 23.636C305.957 23.908 306.025 24.214 306.025 24.486C305.991 25.234 305.787 26.016 305.753 26.73C305.719 27.376 305.787 28.022 305.787 28.668C305.787 29.45 305.719 30.198 305.719 30.912C305.753 30.912 305.855 30.878 305.821 30.98C305.821 31.286 305.719 31.524 305.685 31.864C305.889 32.238 306.535 32.034 307.113 32.068C307.895 32.136 308.575 31.762 309.187 31.626C309.493 31.558 309.833 31.592 310.071 31.524C310.309 31.422 310.513 31.184 310.785 31.32C310.853 31.252 310.887 31.184 311.023 31.218C311.023 30.368 311.397 29.518 311.465 28.804C311.567 26.832 311.397 24.826 311.635 22.888C312.519 22.276 313.063 21.358 313.913 20.746C314.151 21.29 314.321 21.698 314.491 22.48C314.525 22.548 314.627 22.582 314.661 22.65C314.627 22.684 314.627 22.752 314.593 22.786C314.831 23.058 314.763 23.432 315.035 23.738C315.239 24.248 315.409 24.588 315.647 25.03C315.613 25.166 315.749 25.404 315.817 25.506C315.817 25.574 315.817 25.642 315.817 25.744C316.327 26.73 316.735 27.818 317.007 28.906C317.347 29.348 317.619 29.858 317.891 30.368C318.367 30.81 318.809 31.116 319.217 31.66C319.557 31.728 319.727 31.966 319.965 32.136C320.237 32.068 320.509 32.034 320.679 31.898C321.767 31.762 322.787 31.592 324.045 31.558C324.113 31.558 324.147 31.626 324.283 31.626C324.351 31.592 324.419 31.524 324.453 31.422C324.351 31.082 324.385 30.436 324.351 29.926C324.079 29.518 323.807 29.042 323.195 28.94C323.059 28.804 322.991 28.566 322.821 28.396C322.549 27.682 322.209 27.07 321.971 26.288C321.869 26.186 321.665 25.914 321.801 25.812C321.699 25.812 321.631 25.812 321.631 25.744C321.257 24.724 320.611 23.772 320.271 22.888C320.135 22.718 319.965 22.582 320.033 22.412C319.795 22.412 319.897 22.106 319.727 22.106C319.489 21.494 319.115 21.052 318.877 20.474C318.741 20.134 318.537 19.828 318.435 19.454C318.129 18.57 318.027 17.72 317.211 17.414C317.891 16.7 318.605 15.952 319.149 15.068C319.693 14.796 319.863 14.184 320.339 13.844C321.019 12.654 322.039 11.736 322.753 10.58C322.923 10.444 323.127 10.308 323.195 10.07C323.365 10.138 323.263 9.968 323.399 10.002C323.399 9.832 323.467 9.866 323.365 9.798C323.569 9.798 323.603 9.662 323.705 9.56ZM310.615 8.472C310.683 8.472 310.683 8.404 310.751 8.404C310.751 8.472 310.751 8.506 310.751 8.54C310.683 8.54 310.581 8.574 310.615 8.472Z" fill="#212121"/>
<path d="M344.967 8.574C344.865 8.336 344.525 8.234 344.355 8.472C343.981 8.438 343.675 8.302 343.573 8.302C342.553 8.37 341.669 8.608 340.819 8.234C340.411 8.506 339.867 8.268 339.425 8.302C339.085 8.336 338.983 8.506 338.711 8.506C338.711 8.506 338.881 8.54 338.779 8.574C338.507 8.574 338.507 8.506 338.337 8.438C337.963 8.812 338.167 9.39 338.167 9.798C338.167 10.478 338.167 11.124 338.065 11.77C338.133 12.518 338.133 14.048 338.099 14.966C338.099 15.204 338.133 15.408 338.133 15.51C338.065 16.938 337.929 18.264 338.167 19.726C338.065 19.862 338.201 20.032 338.065 20.1C338.133 21.392 338.167 22.31 338.031 23.84C338.201 24.316 337.963 24.962 338.201 25.438C338.099 26.322 338.133 27.444 338.167 28.328C338.167 28.464 338.133 28.906 338.065 28.804C338.201 29.212 337.827 30.13 338.099 30.504C337.929 30.878 338.031 31.388 337.827 31.864C337.895 31.898 337.963 31.932 337.929 32.034C338.303 31.898 338.609 32.034 338.949 32.034C339.459 32 339.935 31.728 340.479 31.762C340.785 31.762 341.091 31.898 341.397 31.864C341.907 31.83 342.519 31.626 342.961 31.83C343.573 31.66 344.389 31.83 345.069 31.762C345.579 31.728 346.055 31.524 346.565 31.558C347.075 31.626 347.449 31.592 347.993 31.524C348.639 31.456 349.421 31.592 350.169 31.558C350.679 31.558 351.121 31.796 351.563 31.524C351.631 31.184 351.801 30.878 351.937 30.572C351.971 30.504 351.869 30.504 351.903 30.47C351.903 30.47 352.005 30.402 352.005 30.368C352.073 30.198 352.039 29.96 352.073 29.756C352.073 29.756 352.175 29.722 352.209 29.688C352.379 29.246 352.379 28.872 352.447 28.498C352.515 27.954 352.481 27.342 352.651 26.764C352.617 26.628 352.447 26.628 352.379 26.526C351.937 26.628 351.597 26.594 351.189 26.628C349.557 26.696 347.517 27.172 345.987 27.172C345.613 27.546 344.593 27.036 343.879 27.376C343.675 27.172 343.233 27.41 343.063 27.342C343.131 26.934 343.063 26.594 343.063 26.254C343.097 24.928 343.573 23.636 343.573 22.344C343.573 21.154 344.117 20.1 344.117 19.046C344.389 18.23 344.253 17.38 344.321 16.564C344.321 16.292 344.389 16.02 344.423 15.748C344.457 15.102 344.355 14.456 344.423 13.776C344.525 12.416 344.695 11.09 344.797 9.73C344.797 9.73 344.729 9.696 344.729 9.662C344.729 9.356 344.933 8.846 344.967 8.574Z" fill="#212121"/>
<path d="M386.372 22.786C386.406 22.752 386.44 22.718 386.474 22.718C386.474 21.392 386.27 20.1 386.168 18.672C386.202 18.672 386.236 18.604 386.236 18.536C386.1 18.4 386.236 18.162 386.236 18.026C386.202 17.992 386.134 17.992 386.168 17.924C386.134 17.38 386.032 16.836 386.134 16.122C386.134 16.054 386.032 16.088 386.032 16.02C386.168 15.612 385.93 15.034 386.1 14.524C385.896 14.422 386.066 14.15 386.032 13.878C386.032 13.47 385.828 12.994 386.1 12.892C385.998 12.892 385.964 12.824 385.93 12.79C386.032 12.484 385.896 11.94 385.828 11.566C385.998 11.226 385.862 10.75 385.76 10.24C385.896 9.764 385.76 9.05 386.032 8.642C386.1 8.302 385.318 7.962 385.046 8.234C384.808 8.132 384.536 8.132 384.264 8.132C384.162 8.438 383.618 8.336 383.244 8.37C383.108 8.404 383.006 8.506 382.938 8.506C382.836 8.506 382.666 8.404 382.53 8.438C381.544 8.506 380.626 8.88 379.742 8.812C379.47 10.24 379.062 11.464 378.518 12.756C378.518 13.266 378.178 13.436 378.178 13.946C377.804 14.66 377.77 15.51 377.158 16.088C377.09 16.496 376.954 16.802 376.716 17.04C376.784 17.074 376.716 17.108 376.716 17.244C376.376 17.754 376.206 18.196 375.9 18.74C376.002 18.91 375.56 19.42 375.492 19.59C375.356 19.794 375.322 20.1 375.22 20.338C375.186 20.44 375.05 20.44 375.016 20.576C375.016 20.916 374.642 21.358 374.506 21.698C374.302 20.882 374.098 20.1 373.758 19.386C373.724 19.284 373.792 19.318 373.792 19.216C373.622 18.978 373.486 18.536 373.486 18.264C373.214 17.516 372.874 16.802 372.602 16.054C372.466 15.782 372.296 15.272 372.33 15C372.024 14.524 371.752 13.98 371.684 13.402C371.446 13.028 371.14 12.552 371.072 12.144C370.732 11.872 370.732 11.26 370.46 10.92C370.494 10.886 370.528 10.886 370.528 10.818C370.222 10.478 370.018 10.036 369.78 9.628C369.814 9.56 369.882 9.458 369.882 9.322C369.712 9.016 369.304 9.254 368.93 9.152C368.522 8.982 367.978 9.05 367.332 9.016C366.584 8.608 365.836 8.88 365.122 8.812L365.19 8.778C365.054 8.71 364.17 8.71 363.966 8.812C363.966 8.812 363.796 8.71 363.83 8.71C363.762 8.71 363.762 8.778 363.728 8.812C363.728 8.744 363.694 8.71 363.626 8.676C363.49 8.812 363.048 8.608 362.912 8.778C362.878 8.846 362.98 8.914 362.844 8.914C362.844 9.05 362.98 9.05 362.912 9.254C362.674 9.798 362.81 10.342 362.776 10.988C362.742 11.498 362.674 12.008 362.708 12.45C362.708 12.722 362.912 13.198 362.742 13.3C362.946 13.81 362.776 14.422 362.742 15.034C362.81 15.034 362.81 15.068 362.81 15.102C362.98 16.768 362.776 18.23 363.184 19.624C363.082 20.032 363.218 20.542 363.082 20.984C363.252 21.256 363.082 21.664 363.184 21.868C363.116 21.868 363.048 21.902 363.048 21.97C363.082 21.97 363.184 21.936 363.184 22.004C363.116 22.106 363.218 22.14 363.082 22.174C363.116 22.922 363.184 23.806 363.116 24.452C363.082 24.758 362.98 25.098 362.98 25.438C362.912 26.356 362.742 27.274 362.81 28.226C362.674 28.396 362.776 28.668 362.776 28.872C362.742 29.076 362.606 29.28 362.572 29.484C362.606 29.45 362.674 29.518 362.674 29.552C362.64 29.926 362.572 30.3 362.436 30.606C362.504 30.606 362.606 30.606 362.572 30.708C362.47 30.878 362.368 31.184 362.47 31.388C362.368 31.388 362.198 31.66 362.266 31.966C362.64 32.102 363.15 32.102 363.388 32.034C363.932 32.34 364.544 32.034 365.02 31.932C365.156 31.898 365.292 31.932 365.394 31.932C366.142 31.864 366.652 31.422 367.264 31.49C367.298 31.49 367.264 31.354 367.332 31.354C367.298 31.388 367.434 31.49 367.434 31.388C367.4 31.388 367.4 31.286 367.434 31.286C367.604 31.32 367.876 31.252 368.216 31.286C368.42 31.184 368.59 31.082 368.76 30.98C368.658 30.368 368.386 29.79 368.386 29.178C368.386 28.634 368.488 28.09 368.488 27.58C368.488 27.546 368.386 27.512 368.386 27.444C368.352 27.24 368.522 27.036 368.522 26.866C368.352 25.914 368.386 25.2 368.386 23.976C368.182 23.466 368.42 22.48 368.216 21.868C368.352 21.936 368.25 21.766 368.352 21.766C368.284 21.528 368.284 21.256 368.318 21.086C368.352 20.61 368.318 19.998 368.318 19.556C368.284 19.182 368.25 18.74 368.25 18.468C368.284 18.094 368.114 17.652 368.25 17.312C368.216 17.278 368.148 17.312 368.148 17.244C368.148 17.176 368.284 17.244 368.25 17.142C368.046 17.04 368.216 16.496 368.182 16.156C368.352 16.156 368.182 16.462 368.318 16.496C368.318 16.462 368.352 16.496 368.386 16.53C368.692 17.72 368.896 18.57 369.168 19.828C369.304 20.304 369.678 21.086 369.746 21.528C369.78 21.528 369.814 21.562 369.848 21.596C370.018 21.8 370.256 22.31 370.29 22.582C370.596 23.262 370.936 23.942 371.31 24.69C371.548 24.894 371.616 25.2 371.582 25.506C371.616 25.506 371.684 25.472 371.684 25.54C371.582 25.608 371.82 25.948 371.65 26.05C371.718 26.084 371.786 26.118 371.786 26.22C372.16 27.41 372.67 28.362 372.738 29.586C373.01 29.994 372.806 30.878 373.384 31.014C373.554 31.048 373.792 30.946 374.03 30.912C374.37 30.878 374.744 30.946 375.186 30.946C375.934 30.912 376.75 30.504 377.43 30.708C377.77 30.504 378.212 30.64 378.484 30.402C378.518 29.722 378.654 29.008 378.62 28.498C378.654 28.498 378.722 28.498 378.722 28.43C378.654 27.954 378.892 27.376 378.722 26.866C378.926 26.798 378.858 26.458 378.79 26.356C378.994 26.254 378.994 25.948 379.062 25.71C379.028 25.642 378.96 25.778 378.926 25.642C379.028 25.642 379.096 25.642 379.13 25.608C379.3 25.03 379.606 24.588 379.606 24.078C379.946 23.704 380.218 23.126 380.184 22.65C380.218 22.582 380.286 22.582 380.286 22.48C380.354 21.868 380.728 21.086 380.796 20.338C380.966 20.236 380.864 19.998 380.898 19.862C381.034 18.91 381.578 18.162 381.612 17.108C381.748 16.972 381.748 16.734 381.884 16.632C381.816 16.53 381.918 16.258 382.02 16.19C381.952 16.802 382.054 17.244 382.054 17.788C382.088 18.672 382.088 19.726 382.088 20.712C382.156 22.514 382.394 23.908 382.19 25.268C382.394 26.764 382.292 28.77 382.428 30.232C382.326 30.3 382.462 30.368 382.326 30.368C382.394 30.402 382.462 30.844 382.326 30.742C382.462 30.81 382.394 31.116 382.53 31.218C382.326 31.32 382.462 31.762 382.292 31.898C382.462 32 382.564 32.17 382.904 32.068C382.87 31.932 382.972 31.932 383.04 31.898C383.448 31.932 383.992 31.932 384.4 31.796C384.502 31.864 384.638 31.864 384.808 31.898C385.284 31.728 385.76 31.49 386.236 31.49C386.576 31.184 387.29 31.082 387.766 31.014C387.834 30.946 387.868 30.81 387.868 30.64C387.834 30.538 387.698 30.572 387.664 30.504C387.698 30.198 387.494 30.062 387.63 29.892C387.392 29.416 387.256 28.702 387.256 28.124C387.018 27.682 387.12 27.104 386.95 26.662C386.916 26.594 386.814 26.56 386.814 26.458C386.78 26.356 386.814 26.186 386.814 26.05C386.746 25.812 386.746 25.608 386.712 25.336C386.644 24.758 386.78 24.146 386.542 23.602C386.678 23.33 386.406 22.99 386.542 22.752C386.474 22.752 386.406 22.752 386.372 22.786Z" fill="#212121"/>
<path d="M413.901 8.71C412.711 8.574 411.793 8.336 410.807 8.404C410.671 8.642 409.855 8.336 409.685 8.71C409.991 9.39 409.515 10.376 409.685 10.954C409.549 12.382 409.583 13.232 409.549 14.66C409.481 14.728 409.481 14.796 409.447 14.898C409.651 14.932 409.311 15.374 409.617 15.442C409.379 15.544 409.685 15.748 409.549 15.918C409.549 15.85 409.549 15.782 409.481 15.816C409.481 16.122 409.515 16.394 409.379 16.632C409.447 16.632 409.481 16.666 409.481 16.7C409.379 17.55 409.311 18.366 409.175 19.148C409.209 19.216 409.243 19.284 409.311 19.318C409.141 19.318 409.379 19.488 409.277 19.522C409.243 19.488 409.243 19.454 409.175 19.454C409.209 19.692 409.141 19.828 409.345 19.896C409.311 19.93 409.243 19.93 409.175 19.93C409.107 20.372 409.209 20.542 409.141 20.984C409.175 20.984 409.243 20.984 409.243 21.018C409.175 21.018 409.107 21.052 409.141 21.154C409.277 21.528 409.005 22.072 409.243 22.48C409.039 22.412 409.209 22.718 409.073 22.752C409.039 22.344 408.665 22.378 408.665 21.936C408.393 21.596 408.291 21.188 408.121 20.78C408.121 20.746 408.087 20.678 408.087 20.644C407.985 20.27 407.713 19.794 407.679 19.522C407.577 19.522 407.543 19.454 407.509 19.386C406.999 18.196 406.387 17.244 405.639 16.292C405.537 15.952 405.197 15.646 405.163 15.374C405.095 15.374 405.061 15.374 405.027 15.34C404.823 15.068 404.653 14.762 404.415 14.422C404.177 14.082 403.667 13.47 403.293 12.824C403.191 12.654 403.123 12.382 402.953 12.178C402.783 11.974 402.205 11.294 402.375 11.226C402.001 11.056 401.865 10.648 401.695 10.308C401.627 9.832 401.219 9.56 401.253 9.152C401.083 9.118 400.947 8.88 400.981 8.744C400.777 8.744 400.811 8.574 400.675 8.506C400.471 8.438 399.995 8.506 399.723 8.336C399.723 8.438 399.689 8.472 399.621 8.472C399.145 8.404 398.941 8.268 398.499 8.234C398.397 8.234 398.397 8.336 398.295 8.302C397.547 8.2 396.935 8.642 396.085 8.472C396.085 8.54 395.983 8.54 395.983 8.642C396.255 10.206 396.425 11.736 396.221 12.994C396.255 13.028 396.323 12.994 396.323 13.062C396.085 14.048 396.425 15.102 396.221 16.394C396.391 17.006 396.357 18.264 396.255 18.978C396.391 19.318 396.323 19.828 396.357 20.1C396.323 20.1 396.289 20.1 396.255 20.1C396.187 20.27 396.425 20.134 396.391 20.236C396.289 20.916 396.527 21.97 396.493 22.684C396.935 24.282 396.697 25.71 396.765 27.376C396.799 28.464 396.799 29.62 396.765 30.47C396.731 30.708 396.561 31.082 396.595 31.286C396.663 31.558 396.867 31.524 397.071 31.524C397.377 31.558 397.649 31.728 397.819 31.592C397.853 31.694 398.125 31.592 398.125 31.728C398.431 31.694 398.601 31.83 398.839 31.694C399.621 32.034 400.641 32 401.559 32.034C401.899 31.864 402.341 31.762 402.681 31.932C402.817 31.762 403.191 31.83 403.395 31.694C403.429 30.232 403.157 28.532 402.953 26.696C402.511 25.336 402.375 24.078 402.069 22.514C402.001 21.494 401.559 20.508 401.729 19.59C401.661 19.59 401.593 19.59 401.593 19.556C401.763 19.216 401.491 18.706 401.627 18.298C401.729 18.808 402.035 18.876 401.967 19.386C402.103 19.42 402.205 19.488 402.239 19.59C402.205 19.59 402.171 19.59 402.171 19.658C402.341 19.726 402.375 19.93 402.409 20.1C402.443 20.134 402.511 20.1 402.511 20.168C402.783 21.018 403.395 21.766 403.633 22.514C404.041 22.718 404.075 23.466 404.517 23.704C404.551 24.282 405.163 24.656 405.265 25.234C405.503 25.268 405.571 25.404 405.571 25.642C405.741 25.642 405.809 25.846 405.775 25.914C405.843 25.914 405.911 25.948 405.911 26.016C405.945 26.118 406.047 26.152 406.047 26.288C406.319 26.526 406.489 26.866 406.591 27.206C406.761 27.308 406.931 27.546 406.897 27.716C407.237 27.886 407.305 28.158 407.407 28.43C407.441 28.464 407.509 28.498 407.611 28.498C407.713 28.906 408.155 28.94 408.359 29.28C408.529 29.552 408.495 29.892 408.767 30.062C408.733 30.538 409.141 30.742 409.175 31.354C409.447 31.694 410.297 31.49 410.773 31.422C411.045 31.388 411.385 31.49 411.691 31.49C412.167 31.49 412.881 31.456 413.221 31.32C413.153 31.32 413.119 31.252 413.187 31.218C413.255 31.218 413.255 31.286 413.289 31.32C413.289 31.184 413.391 31.218 413.391 31.116C413.323 31.116 413.289 31.184 413.255 31.082C413.255 31.048 413.323 31.048 413.357 31.048C413.391 30.912 413.221 30.946 413.221 30.81C413.323 30.742 413.289 30.334 413.289 30.3C413.255 30.13 413.391 29.62 413.391 29.246C413.459 28.294 413.221 26.832 413.459 26.118C413.391 26.084 413.391 25.948 413.357 25.88C413.561 24.826 413.323 23.33 413.289 21.868C413.255 20.474 413.357 19.76 413.391 18.74C413.221 18.06 413.425 17.482 413.459 16.938C413.459 16.666 413.323 16.326 413.357 16.02C413.357 16.02 413.459 16.02 413.459 15.986C413.425 15.51 413.289 14.83 413.459 14.422C413.323 13.844 413.459 13.062 413.527 12.246C413.561 11.668 413.663 11.09 413.697 10.58C413.765 10.036 413.867 9.458 414.003 9.084C413.969 8.948 413.969 8.812 413.901 8.71Z" fill="#212121"/>
<path d="M445.082 13.708C445.048 13.674 444.946 13.708 444.946 13.64C444.674 13.096 444.3 12.722 444.062 12.28C444.028 12.28 443.96 12.28 443.926 12.28C443.79 11.94 443.45 11.77 443.348 11.328C443.076 11.294 443.008 11.09 442.906 10.92C442.192 10.274 441.58 9.798 440.798 9.254C440.39 9.356 440.186 8.846 439.676 8.982C439.574 8.744 439.302 8.88 439.234 8.676C438.724 8.71 438.316 8.37 437.874 8.234C437.5 8.132 436.956 8.098 436.548 8.064C435.698 7.996 434.78 7.928 434.066 8.302C434.066 8.268 434.1 8.234 433.998 8.234C433.556 8.268 432.944 8.132 432.638 8.438C432.604 8.404 432.57 8.37 432.502 8.37C431.822 8.54 431.278 8.744 430.768 8.846C430.7 8.914 430.666 8.948 430.632 9.016C429.884 9.152 429.612 9.73 428.898 9.9C428.728 10.206 428.32 10.308 428.15 10.614C427.946 10.648 427.878 10.886 427.776 10.988C427.47 11.328 427.164 11.498 426.926 11.906C426.654 12.314 426.314 12.586 426.042 12.96C425.838 13.266 425.702 13.572 425.498 13.878C425.328 14.184 425.022 14.49 424.988 14.864C424.954 14.864 424.92 14.864 424.886 14.864C424.75 15.374 424.478 15.782 424.342 16.224C424.308 16.326 424.41 16.292 424.41 16.394C424.24 16.36 424.274 16.496 424.172 16.53C423.866 17.652 423.696 18.774 423.56 19.828C423.526 20.032 423.424 20.236 423.39 20.474C423.356 21.052 423.356 21.766 423.39 22.106C423.424 22.48 423.492 22.922 423.458 23.296C423.662 23.772 423.492 24.248 423.798 24.69C423.934 25.574 424.58 26.084 424.886 26.9C425.158 27.036 425.294 27.274 425.396 27.546C426.178 28.192 426.722 29.042 427.368 29.79C427.946 30.232 428.49 30.674 429.204 30.98C429.238 31.014 429.272 31.082 429.306 31.116C429.374 31.116 429.408 31.116 429.476 31.116C430.054 31.626 430.904 31.83 431.754 32.068C431.924 31.898 432.06 32.068 432.264 32.102C432.638 32.17 433.284 32.136 433.624 32.17C434.372 32.306 435.256 32.136 435.868 32.068C435.902 32 435.868 31.966 435.936 31.932C435.936 32 435.97 32 435.936 32.068C436.514 31.932 436.956 31.898 437.398 31.626C437.432 31.626 437.466 31.66 437.432 31.728C437.636 31.558 437.874 31.626 438.044 31.422C438.894 31.184 439.574 30.708 440.526 30.538C440.73 30.334 440.968 30.13 441.138 29.926C441.818 29.518 442.328 28.94 443.178 28.702C443.178 28.634 443.246 28.6 443.28 28.498C444.606 27.614 444.946 26.05 445.626 24.588C445.66 23.84 445.898 23.534 445.864 22.82C446.068 22.514 445.966 22.106 446.204 21.8C446.102 21.358 446.374 21.12 446.408 20.678C446.442 19.998 446.408 19.522 446.612 19.148C446.442 19.148 446.544 19.046 446.51 19.012C446.646 18.774 446.374 18.4 446.578 18.23C446.34 18.128 446.578 17.924 446.374 17.788C446.272 16.258 445.626 15.17 445.048 13.912C445.082 13.878 445.082 13.776 445.082 13.708ZM432.604 13.47C433.658 13.266 434.814 12.484 435.936 12.858C437.636 12.688 439.268 13.606 440.22 14.524C440.56 15.374 441.172 16.156 441.104 16.972C441.104 17.006 441.172 17.006 441.24 17.006C441.24 17.414 441.478 17.822 441.376 18.094C441.546 18.298 441.614 18.91 441.614 19.148C441.648 19.658 441.852 20.644 441.58 21.426C441.478 21.732 441.104 22.004 440.832 22.344C440.662 22.548 440.628 22.82 440.492 22.99C440.322 23.16 440.084 23.262 439.914 23.432C439.846 23.5 439.846 23.602 439.778 23.67C439.2 24.316 438.418 24.724 437.806 25.302C437.058 25.574 436.582 26.05 436.038 26.492C435.392 26.662 434.644 27.104 433.896 27.104C433.794 27.104 433.794 27.002 433.692 27.002C433.624 26.968 433.488 27.036 433.386 27.036C433.148 27.036 432.978 26.9 432.672 26.798C432.536 26.73 432.23 26.832 432.23 26.56C432.128 26.56 432.094 26.628 431.992 26.594C431.72 26.322 431.278 26.084 431.006 25.948C430.292 24.826 429.748 23.704 429.238 22.514C429.17 21.494 428.864 20.61 428.932 19.624C428.966 19.488 429 19.386 429.034 19.284C429.068 18.672 428.83 17.992 429.102 17.312C429.102 17.278 429.204 17.21 429.204 17.176C429.238 17.074 429.17 17.006 429.34 17.006C429.68 15.85 430.496 14.558 431.686 14.014C431.72 13.946 431.788 13.912 431.822 13.81C432.162 13.776 432.4 13.606 432.604 13.47Z" fill="#212121"/>
<path d="M471.793 22.106C471.861 21.936 472.065 21.936 472.201 21.868C472.575 21.46 472.983 21.086 473.051 20.372C473.697 19.012 473.289 17.108 473.493 15.884C473.289 14.864 473.289 13.504 473.051 12.586C472.779 12.144 472.609 11.43 472.201 10.988C471.657 10.614 471.283 10.036 470.671 9.73C470.603 9.662 470.637 9.56 470.569 9.526C470.365 9.526 470.365 9.322 470.127 9.39C470.127 9.322 470.127 9.254 470.059 9.254C469.787 9.118 469.549 8.914 469.107 8.948C467.543 8.404 465.503 8.404 464.041 8.234C463.973 8.37 463.565 8.472 463.361 8.302C462.987 8.438 462.647 8.268 462.239 8.268C461.321 8.268 460.301 8.574 459.451 8.472C459.451 8.438 459.417 8.438 459.417 8.472C459.451 8.472 459.451 8.506 459.451 8.54C458.567 8.37 457.717 8.54 456.867 8.472C456.867 8.506 456.833 8.574 456.765 8.574C456.901 9.288 456.935 9.866 457.003 10.41C456.935 10.41 456.969 10.478 456.867 10.478C457.003 10.92 456.867 11.396 456.867 11.872C456.901 12.11 457.037 12.382 457.003 12.62C456.935 12.926 457.071 13.368 457.071 13.674C457.071 13.742 456.969 13.81 457.003 13.878C457.003 13.912 457.105 13.98 457.105 14.014C457.105 14.048 457.037 14.15 457.037 14.218C457.037 14.218 457.105 14.218 457.105 14.286C457.105 14.422 457.105 14.626 457.105 14.762C457.071 15.034 457.207 15.51 457.207 15.952C457.275 16.836 457.445 17.38 457.445 18.128C457.445 19.046 457.479 19.896 457.479 20.814C457.479 22.004 457.615 23.194 457.411 24.384C457.479 26.866 456.935 28.736 456.833 31.116C456.833 31.184 456.901 31.184 456.901 31.218C456.765 31.286 456.765 31.49 456.697 31.728C456.799 32.068 457.105 31.864 457.377 31.864C457.785 31.864 458.261 32.17 458.771 32C458.839 31.898 459.043 31.864 459.179 31.898C459.587 31.66 460.267 31.898 460.505 31.626C460.573 31.66 460.743 31.592 460.845 31.694C461.389 31.456 462.001 31.592 462.477 31.456C462.545 31.558 462.613 31.66 462.851 31.626C463.157 30.98 462.885 30.504 462.919 29.994C462.919 30.062 462.851 30.096 462.851 30.028C462.851 29.96 462.817 29.96 462.817 29.926C462.885 29.892 462.919 30.028 462.953 29.926C462.783 29.654 463.021 29.348 462.783 29.008C462.817 29.008 462.885 29.178 462.885 29.008C462.681 28.804 462.953 28.804 462.715 28.6C462.817 28.6 462.817 28.498 462.851 28.43C462.715 27.852 462.613 27.274 462.579 26.696C462.545 26.322 462.681 25.71 462.477 25.54C462.511 25.54 462.545 25.506 462.579 25.506C462.545 24.996 462.613 24.622 462.545 24.214C463.157 24.078 463.939 23.908 464.687 23.908C464.653 23.806 464.755 23.84 464.789 23.806C465.231 23.67 465.673 23.636 466.115 23.568C466.931 23.432 467.713 22.99 468.461 22.922C468.835 22.888 469.141 23.024 469.447 22.956C469.821 22.888 470.093 22.582 470.433 22.548C470.705 22.514 470.909 22.48 471.181 22.378C471.181 22.31 471.181 22.276 471.215 22.242C471.487 22.106 471.725 21.936 471.793 22.106ZM466.727 19.862C465.265 19.862 463.565 20.1 462.035 20.1C462.069 18.094 462.001 15.544 461.559 13.776C461.525 13.436 461.593 13.198 461.525 12.892C461.933 12.552 462.715 12.586 463.157 12.348C463.531 12.246 463.973 12.348 464.415 12.348C464.789 12.348 465.129 12.212 465.435 12.246C466.013 12.314 466.523 12.45 467.033 12.722C467.203 12.824 467.407 12.926 467.509 12.994C467.747 13.198 467.781 13.504 468.019 13.64C468.461 15.476 468.801 17.006 468.121 18.774C467.713 18.978 467.407 19.318 467.135 19.692C466.965 19.692 466.727 19.658 466.727 19.862Z" fill="#212121"/>
<path d="M506.246 32.51C506.314 32.408 506.416 32.306 506.28 32.306C506.28 32.17 506.348 32.204 506.45 32.238C506.416 32 506.518 31.864 506.484 31.592C506.824 31.218 506.62 30.572 506.926 30.266C506.994 29.45 506.722 28.532 506.45 27.716C506.178 27.478 506.008 27.682 505.804 27.75C505.702 27.784 505.566 27.716 505.464 27.75C505.226 27.818 504.92 28.022 504.614 28.158C504.138 28.328 503.56 28.396 503.322 28.566C503.152 28.566 502.846 28.702 502.676 28.566C503.152 27.818 503.662 26.9 504.07 26.084C504.036 25.914 504.104 25.608 504.24 25.506C504.172 25.132 504.478 24.826 504.444 24.418C504.444 24.35 504.58 24.384 504.58 24.316C504.444 24.282 504.58 24.214 504.478 24.078C504.444 22.174 504.92 20.678 504.682 19.216C504.648 19.012 504.512 18.808 504.478 18.604C504.342 18.094 504.274 17.482 504.172 16.836C504.138 16.768 504.07 16.802 504.07 16.734C504.138 16.19 503.866 15.442 503.492 14.966C503.322 14.388 503.118 14.082 502.812 13.708C502.132 12.348 501.18 11.26 500.024 10.376C500.092 10.24 499.922 10.308 499.956 10.206C499.072 9.696 498.358 9.084 497.474 8.608C497.27 8.642 497.202 8.54 496.998 8.574C496.862 8.438 496.692 8.472 496.59 8.336C494.924 7.894 492.816 8.166 491.49 8.234C491.286 8.37 490.81 8.37 490.572 8.574C490.436 8.574 490.3 8.574 490.198 8.574C489.994 8.71 489.756 8.812 489.518 8.88C489.484 9.152 489.11 9.05 489.144 9.288C489.11 9.22 489.076 9.22 489.008 9.254C488.532 9.424 488.056 10.104 487.376 10.138C487.274 10.308 487.036 10.546 486.866 10.512C486.696 10.954 486.254 11.192 485.982 11.532C485.574 11.974 485.302 12.484 485.03 13.028C484.996 13.096 484.826 13.028 484.86 13.13C484.622 13.606 484.486 14.15 484.214 14.558C484.18 14.898 483.976 15.17 483.874 15.476C483.67 16.088 483.602 16.734 483.534 17.244C483.466 17.822 483.296 18.298 483.33 18.774C483.33 18.876 483.194 18.808 483.228 18.944C483.262 18.944 483.296 18.944 483.296 19.012C483.194 19.76 483.058 20.61 483.058 21.358C483.058 22.004 483.228 22.82 483.228 23.194C483.228 24.35 483.602 25.166 483.908 26.084C484.18 26.356 484.384 26.696 484.52 27.07C484.69 27.24 484.894 27.376 484.962 27.682C485.166 27.784 485.438 28.056 485.404 28.294C486.288 28.838 486.73 29.79 487.886 30.028C488.226 30.368 488.702 30.402 489.11 30.606C489.178 30.674 489.212 30.776 489.28 30.81C489.824 31.184 490.606 31.456 491.286 31.49C491.864 31.694 492.578 31.592 493.292 31.592C494.448 31.626 495.638 31.762 496.93 31.592C496.964 31.558 497.066 31.524 497.134 31.49C497.372 31.626 497.712 31.422 497.95 31.524C498.222 32.136 498.834 32.17 499.242 32.578C499.548 32.782 499.922 32.646 500.126 32.85C500.33 32.748 500.466 32.714 500.704 32.816C501.792 32.68 502.948 32.646 504.07 32.578C504.614 32.272 505.532 32.34 506.246 32.51ZM499.378 24.588C498.8 24.996 498.494 25.676 498.018 26.084C497.916 26.084 497.814 25.812 497.95 25.846C497.44 25.098 497.44 23.976 496.862 23.262C496.896 23.194 496.93 23.194 496.964 23.126C496.488 22.65 496.114 23.33 495.468 23.262C494.754 23.534 494.04 23.84 493.224 24.01C493.054 24.044 493.088 23.908 492.986 23.874C492.918 23.976 492.918 24.112 492.714 24.044C492.714 24.146 492.68 24.214 492.646 24.248C492.646 24.384 492.714 24.418 492.782 24.486C492.68 24.792 492.918 25.03 492.952 25.37C493.224 25.676 493.156 26.356 493.598 26.492C493.496 26.832 493.87 26.968 493.87 27.274C493.598 27.24 493.462 27.036 493.122 27.036C493.122 26.9 492.986 26.934 492.952 26.832C492.306 26.764 491.966 26.356 491.354 26.254C490.708 25.914 490.504 25.166 489.892 24.758C489.79 24.282 489.45 23.602 489.28 23.194C489.28 23.092 489.28 23.024 489.348 23.024C489.11 21.8 489.144 20.168 489.28 19.318C489.178 18.944 489.144 18.502 489.246 17.992C489.348 17.244 489.28 16.394 489.552 15.816C489.586 15.748 489.688 15.748 489.756 15.68C489.756 15.646 489.722 15.544 489.756 15.51C489.824 15.374 489.994 15.204 490.198 15.136C490.164 14.966 490.436 14.83 490.538 14.626C490.912 14.558 491.422 14.15 491.83 14.184C491.898 14.15 491.864 14.082 491.864 14.048C493.53 13.742 494.924 12.518 496.522 13.334C496.828 13.674 497.27 13.878 497.78 14.014C498.222 14.354 498.698 14.456 499.038 14.83C499.14 14.932 499.14 15.102 499.242 15.204C499.48 15.51 499.786 15.714 499.99 16.054C500.262 16.53 500.364 17.142 500.636 17.686C500.942 18.196 501.112 18.774 501.384 19.284C501.316 19.726 501.35 19.998 501.248 20.508C501.112 20.474 501.214 20.678 501.078 20.678C500.942 22.208 500.398 23.364 499.548 24.214C499.548 24.384 499.446 24.452 499.378 24.588Z" fill="#212121"/>
<path d="M527.709 22.956C528.457 22.786 529.171 22.752 529.817 22.514C530.259 22.344 530.599 21.936 531.177 21.936C531.551 21.63 531.721 21.12 532.197 20.882C532.333 20.474 532.503 20.27 532.605 19.794C533.251 19.148 533.659 18.298 533.557 17.38C533.965 16.7 533.693 15.748 533.659 15.068C533.523 15 533.523 15.034 533.625 14.864C533.421 14.014 533.489 12.586 532.911 11.702C532.877 11.328 532.367 10.886 532.333 10.512C532.231 10.512 532.163 10.478 532.061 10.444C531.925 10.002 531.347 10.036 531.177 9.696C530.905 9.764 530.735 9.526 530.531 9.424C530.531 9.424 530.531 9.526 530.497 9.492C530.191 9.356 529.749 9.152 529.273 9.084C528.797 8.676 527.913 8.54 527.233 8.472C526.281 8.234 525.397 8.2 524.479 8.268C523.765 8.302 523.153 8.268 522.575 8.438C522.439 8.506 522.269 8.438 522.167 8.438C521.827 8.438 521.487 8.642 521.181 8.642C520.297 8.608 519.447 8.71 518.461 8.676C518.461 8.642 518.495 8.642 518.495 8.608C517.679 8.608 517.067 8.914 516.285 8.812C516.217 9.016 516.183 9.118 516.183 9.322C516.217 9.322 516.285 9.288 516.285 9.356C516.251 9.696 516.319 10.104 516.217 10.444C516.353 10.818 516.183 11.26 516.217 11.668C516.217 11.94 516.319 12.178 516.353 12.416C516.659 15.578 516.727 19.012 516.591 21.97C516.523 22.004 516.489 21.97 516.455 22.038C516.489 22.072 516.591 22.038 516.591 22.14C516.625 22.378 516.489 22.582 516.455 22.82C516.455 22.888 516.557 22.956 516.557 23.024C516.489 23.636 516.353 24.146 516.353 24.724C516.353 24.962 516.421 25.2 516.421 25.438C516.421 27.138 516.523 28.736 516.285 30.436C516.387 30.504 516.353 30.708 516.353 30.912C516.591 31.116 516.285 31.456 516.557 31.728C517.067 31.694 517.339 31.422 517.917 31.558C517.985 31.558 517.951 31.456 518.019 31.422C518.325 31.456 518.631 31.456 518.937 31.422C519.243 31.422 519.481 31.286 519.685 31.286C519.719 31.286 519.685 31.388 519.753 31.354C519.889 31.32 520.059 31.15 520.263 31.252C520.331 31.252 520.263 31.15 520.331 31.15C520.773 31.116 521.623 31.116 521.487 30.402C521.453 30.232 521.317 30.062 521.283 29.858C521.215 27.954 521.181 25.812 521.181 24.112C521.895 24.214 522.677 23.908 523.255 23.772C523.289 24.146 523.731 24.35 523.595 24.656C523.935 24.724 523.833 25.2 524.071 25.37C524.241 25.914 524.649 26.492 524.717 27.172C525.159 27.478 525.193 28.26 525.431 28.838C525.567 29.144 525.873 29.348 525.839 29.62C526.451 30.062 526.859 30.708 527.505 31.082C527.539 31.15 527.539 31.184 527.539 31.286C527.675 31.286 527.641 31.252 527.743 31.286C528.423 32.034 529.409 31.694 530.395 32C530.939 31.932 531.381 31.966 532.061 31.898C532.129 32 532.333 32 532.435 32.034C532.775 31.864 532.537 31.422 532.605 31.048C532.639 30.844 532.775 30.708 532.843 30.538C532.877 30.47 532.843 30.368 532.843 30.3C533.013 29.824 533.319 29.348 533.421 28.804C533.353 28.702 533.251 28.634 533.183 28.532C532.979 28.668 532.809 28.498 532.605 28.396C531.585 28.362 530.905 28.464 530.463 27.852C530.055 27.24 529.919 26.39 529.341 25.914C529.375 25.914 529.375 25.88 529.409 25.846C529.205 25.812 529.103 25.506 529.001 25.472C528.899 25.234 528.899 25.132 528.763 24.962C528.695 24.146 528.151 23.5 527.709 22.956ZM519.447 31.252C519.413 31.354 519.277 31.32 519.175 31.354C519.175 31.252 519.345 31.286 519.447 31.252ZM523.017 19.114C522.779 19.182 522.541 19.216 522.303 19.182C522.065 18.536 522.167 17.924 521.793 17.414C521.895 16.904 521.657 16.258 521.657 15.714C521.623 14.524 521.181 13.3 520.739 12.382C522.133 12.076 523.697 12.042 525.125 12.144C525.295 12.178 525.465 12.28 525.635 12.28C525.873 12.28 526.145 12.212 526.519 12.28C526.927 12.314 527.403 12.382 527.811 12.484C529.137 12.858 529.171 14.592 529.069 15.68C529.001 16.666 528.661 17.55 528.287 18.298C527.641 18.638 527.029 18.978 526.145 19.046C525.023 19.182 523.867 19.148 523.017 19.114Z" fill="#212121"/>
<path d="M560.075 13.98C560.007 14.048 560.007 14.184 560.007 14.218C560.075 14.218 560.041 14.116 560.109 14.15C560.143 14.252 560.041 14.218 560.041 14.286C560.313 14.354 560.245 14.694 560.381 14.796C560.245 15.17 560.925 15.68 560.857 16.258C560.993 16.224 560.993 16.36 561.027 16.428C561.741 16.428 562.455 16.156 562.931 15.782C563.407 15.714 563.815 15.476 564.257 15.476C564.835 15.204 564.359 14.286 564.325 13.912C564.427 13.81 564.325 13.674 564.359 13.47C563.951 12.79 563.679 11.974 563.271 11.328C562.693 10.852 562.387 10.104 561.775 9.798C561.877 9.696 561.673 9.73 561.673 9.594C561.129 9.492 560.925 9.016 560.313 8.948C560.211 8.778 560.075 8.71 559.939 8.608C559.633 8.71 559.463 8.37 559.157 8.302C558.579 8.2 557.933 8.166 557.423 8.166C557.151 7.996 556.811 8.132 556.505 7.962C555.213 8.234 554.091 8.54 552.799 8.676C552.799 8.71 552.799 8.778 552.765 8.778C552.153 8.914 551.439 8.982 551.031 9.186C550.589 9.152 550.351 9.39 549.909 9.356C549.297 9.662 548.889 9.934 548.345 10.274C548.277 10.478 548.141 10.648 547.937 10.75C547.699 11.226 547.529 11.736 547.291 12.144C547.189 12.62 547.087 13.13 546.917 13.64C546.679 14.558 546.305 15.476 546.373 16.428C546.407 16.768 546.577 17.074 546.679 17.448C546.815 17.72 546.849 18.06 547.019 18.298C547.087 18.434 547.257 18.502 547.359 18.638C547.393 18.672 547.325 18.774 547.359 18.808C547.597 19.25 548.243 19.488 548.413 20.032C548.753 20.134 549.025 20.338 549.263 20.576C549.365 20.576 549.433 20.576 549.501 20.576C549.637 20.814 550.045 20.746 550.181 20.984C550.487 20.95 550.929 21.086 551.167 21.256C552.595 21.426 553.955 21.97 555.009 22.48C555.111 22.378 555.281 22.548 555.383 22.48C555.383 22.548 555.417 22.616 555.451 22.65C556.029 22.786 556.539 23.092 557.117 23.33C557.083 23.33 557.185 23.296 557.219 23.296C557.253 23.33 557.287 23.398 557.287 23.432C557.491 23.5 557.729 23.466 557.899 23.534C558.001 23.602 558.103 23.738 558.205 23.772C558.443 23.874 558.477 23.738 558.579 23.942C558.613 23.942 558.613 24.18 558.579 24.248C558.545 25.132 558.307 25.88 557.729 26.356C557.219 26.798 555.315 26.9 554.499 26.764C553.513 26.56 552.731 26.05 552.187 25.608C551.473 25.574 550.759 25.234 550.181 25.098C549.569 24.52 548.617 24.554 548.175 23.806C547.971 23.738 547.767 23.5 547.461 23.67C547.461 23.772 547.393 23.806 547.393 23.942C546.951 24.214 546.781 24.792 546.373 25.098C546.305 25.438 546.033 25.574 545.829 25.812C545.897 25.846 545.931 25.88 545.863 25.914C545.659 26.016 545.047 26.798 545.081 27.002C545.115 27.172 545.387 27.24 545.625 27.41C546.237 27.852 546.747 28.532 547.597 28.6C547.631 28.668 547.699 28.736 547.767 28.77C547.835 28.838 547.869 28.634 547.903 28.736C547.937 28.838 547.903 28.872 547.971 28.974C549.229 29.212 550.079 29.994 551.235 30.402C551.235 30.47 551.269 30.572 551.337 30.572C552.153 30.946 553.445 31.558 554.329 31.592C554.329 31.66 554.261 31.694 554.363 31.694C555.179 31.966 556.301 32.17 557.151 32.204C557.933 32.408 558.681 32.102 559.463 31.864C559.429 31.728 559.735 31.762 559.531 31.66C559.905 31.796 560.449 31.524 560.687 31.286C561.027 31.32 561.061 30.98 561.469 31.048C561.843 30.674 562.081 30.13 562.557 29.79C562.897 29.314 563.033 28.498 563.441 27.988C563.475 27.682 563.407 27.036 563.475 26.628C563.407 26.322 563.271 25.914 563.407 25.71C563.237 25.37 563.339 25.03 563.271 24.622C563.101 23.942 562.761 23.33 562.659 22.718C562.625 22.718 562.557 22.718 562.557 22.684C562.557 22.548 562.523 22.582 562.557 22.446C562.319 22.446 562.387 22.004 562.149 21.902C561.945 21.086 561.163 20.644 560.449 20.202C559.633 19.726 558.885 19.216 557.763 19.046C557.423 18.74 556.879 18.638 556.369 18.502C555.995 18.128 555.485 18.128 555.043 17.822C554.703 17.856 554.669 17.652 554.363 17.652C553.921 17.176 553.275 17.21 552.731 17.006C552.731 17.006 552.833 16.972 552.799 16.972C552.459 16.734 551.813 16.768 551.575 16.326C551.813 15.578 552.187 14.694 552.765 14.184C554.227 13.232 556.301 13.164 558.171 13.232C558.137 13.3 558.103 13.3 558.171 13.368C558.851 13.3 559.157 13.538 559.565 13.606C559.667 13.81 559.905 13.98 560.075 13.98ZM558.647 25.71C558.647 25.812 558.443 25.778 558.409 25.744C558.409 25.642 558.579 25.71 558.647 25.71Z" fill="#212121"/>
<path d="M594.996 8.404C594.622 8.438 594.316 8.268 593.942 8.234C593.568 8.2 593.092 8.37 592.65 8.404C591.222 8.54 589.76 8.302 588.23 8.438C586.054 8.608 583.912 8.438 582.042 8.472C581.532 8.472 581.022 8.506 580.512 8.506C579.866 8.506 579.152 8.37 578.54 8.472C578.37 8.506 578.234 8.574 578.064 8.608C577.86 8.608 577.69 8.54 577.52 8.54C577.01 8.608 576.568 8.812 576.092 8.71C576.058 8.608 575.922 8.812 575.99 8.608C575.752 8.914 574.936 8.676 574.732 9.016C574.834 9.152 574.732 9.288 574.868 9.39C574.664 9.526 574.902 9.764 574.936 10.002C574.936 10.138 574.8 10.24 574.8 10.274C574.8 10.342 574.868 10.444 574.868 10.546C574.868 10.852 574.834 11.26 574.834 11.6C574.868 11.872 574.97 12.11 574.97 12.314C574.97 12.722 574.868 13.13 575.038 13.334C575.31 13.674 575.514 13.368 575.854 13.266C576.092 13.164 576.466 13.232 576.602 13.164C576.942 13.062 577.452 12.96 577.826 13.096C577.894 12.96 578.03 12.926 578.166 12.892C579.492 12.654 581.328 12.926 582.62 12.79C582.722 14.626 582.586 16.326 582.722 17.992C582.756 18.366 582.824 18.672 582.824 19.046C582.824 20.134 582.756 21.29 582.722 22.548C582.722 22.616 582.824 22.548 582.824 22.616C582.756 22.616 582.688 22.616 582.722 22.684C582.756 24.214 582.654 25.778 582.518 27.376C582.416 28.804 582.382 29.654 582.246 30.64C582.518 30.912 582.076 31.456 582.314 31.728C582.688 31.898 582.926 31.762 583.198 31.762C583.436 31.796 583.674 31.966 584.014 32C584.218 32.034 584.422 31.966 584.66 31.966C585.68 31.966 586.938 32.17 587.652 31.83C587.788 31.83 587.958 31.932 588.026 31.864C588.162 31.694 588.162 31.592 588.366 31.456C588.298 31.286 588.094 31.184 588.026 30.946C587.958 30.606 588.026 30.062 587.958 29.62C587.924 29.348 587.788 29.178 587.856 28.906C587.686 28.906 587.924 28.872 587.72 28.804C587.856 28.532 587.686 28.294 587.652 28.022C587.55 27.342 587.516 26.458 587.448 25.948C587.414 25.744 587.482 25.54 587.448 25.37C587.414 24.928 587.278 24.622 587.21 24.248C587.176 24.01 587.244 23.738 587.21 23.466C587.176 23.228 587.074 22.99 587.074 22.786C587.074 22.752 587.142 22.65 587.142 22.616C587.142 21.868 587.074 21.12 587.074 20.338C587.04 20.236 586.972 20.168 586.938 20.066C587.108 19.216 586.904 17.992 587.006 16.972C587.074 16.496 587.312 16.02 587.414 15.578C587.584 14.83 587.618 14.116 587.89 13.538C589.046 13.674 590.644 13.674 592.14 13.946C592.412 14.014 592.752 14.116 593.126 14.15C593.5 14.184 593.84 14.15 594.112 14.184C594.282 14.218 594.316 14.32 594.452 14.286C594.792 14.184 594.554 13.81 594.588 13.572C594.622 13.096 594.792 12.416 594.86 11.838C594.894 11.464 594.894 11.09 595.098 10.852C594.758 10.104 595.302 9.322 594.996 8.404Z" fill="#212121"/>
<path d="M624.213 20.338C624.213 20.372 624.247 20.338 624.281 20.338C624.383 19.114 624.451 17.618 624.587 16.292C624.621 16.054 624.519 15.85 624.519 15.544C624.485 12.756 625.029 10.58 624.553 8.166C624.247 8.03 623.873 8.268 623.465 8.234C623.261 8.234 623.159 8.132 622.989 8.166C622.785 8.166 622.241 8.472 622.139 8.234C621.901 8.302 621.289 8.336 620.677 8.438C620.575 8.404 620.779 8.54 620.643 8.54C620.609 8.438 620.541 8.506 620.439 8.506C620.643 8.37 619.997 8.438 619.929 8.404C619.895 8.608 619.827 8.506 619.725 8.676C619.759 8.812 619.929 8.812 619.963 8.948C619.929 9.628 620.337 10.172 619.963 10.852C620.065 11.974 619.895 12.96 620.031 13.946C620.099 14.728 619.997 15.374 619.963 15.986C619.963 16.428 620.133 16.836 620.133 17.312C620.133 17.618 620.133 17.822 620.133 18.128C620.133 18.74 620.201 19.454 620.133 20.168C620.099 20.848 619.963 21.562 620.031 22.276C619.827 22.786 619.827 23.33 619.691 23.908C619.555 24.554 619.487 24.996 619.385 25.506C619.351 25.608 619.385 25.778 619.351 25.846C619.215 26.322 618.977 26.764 618.705 27.206C618.535 27.512 618.433 27.716 618.025 27.784C617.991 27.852 617.991 27.954 617.889 27.954C617.719 27.954 617.515 28.022 617.413 28.022C616.903 28.124 616.257 28.022 615.713 28.056C615.169 28.09 614.829 28.26 614.455 28.158C613.911 27.988 612.891 27.41 612.653 27.07C612.109 26.288 611.837 25.506 611.633 24.384C611.565 24.316 611.463 24.214 611.429 24.078C611.395 23.942 611.565 24.044 611.531 23.908C611.327 23.772 611.259 23.33 611.293 23.092C610.817 22.174 610.817 20.678 610.919 19.42C610.987 18.944 610.885 18.604 611.055 18.298C610.851 18.128 611.055 17.686 611.089 17.414C611.123 17.04 611.021 16.632 611.123 16.258C611.157 16.19 611.225 16.088 611.259 16.02C611.259 15.986 611.157 15.986 611.157 15.884C611.191 15.748 611.259 15.68 611.293 15.544C611.361 14.932 611.259 14.422 611.293 13.776C611.293 13.504 611.463 13.096 611.293 12.892C611.497 12.79 611.327 12.654 611.327 12.45C611.327 12.178 611.497 11.838 611.463 11.498C611.463 10.92 611.361 10.308 611.395 9.798C611.429 9.424 611.633 9.118 611.531 8.88C611.429 8.88 611.395 8.812 611.361 8.744C610.069 8.71 609.015 8.302 607.723 8.2C607.655 8.2 607.689 8.302 607.655 8.302C607.451 8.2 607.111 8.268 607.009 8.438C606.533 8.438 605.479 8.336 605.105 8.54C604.969 8.744 605.241 8.982 605.275 9.186C605.377 9.696 605.275 10.444 605.275 10.988C605.309 12.654 605.343 14.252 605.241 15.714C605.377 16.258 605.309 16.904 605.309 17.516C605.343 18.502 605.275 19.556 605.275 20.508C605.275 20.61 605.309 20.678 605.309 20.746C605.411 22.14 605.173 23.806 605.513 25.2C605.785 25.676 606.023 26.22 606.227 26.798C606.261 26.832 606.329 26.866 606.397 26.934C606.567 27.546 607.213 27.886 607.383 28.43C607.927 28.804 608.165 29.518 608.743 29.858C608.811 30.028 608.947 30.096 609.015 30.232C609.219 30.334 609.355 30.436 609.423 30.64C609.525 30.708 609.661 30.708 609.729 30.742C610.205 31.048 610.681 31.592 611.157 31.796C611.293 31.83 611.497 31.83 611.633 31.864C612.041 32 612.483 32.204 612.993 32.204C613.333 32.238 613.639 32.204 613.945 32.17C614.217 32.17 614.523 32.238 614.795 32.204C615.645 32.136 616.291 32 617.107 31.796C618.569 31.422 620.031 31.15 620.949 30.3C621.085 30.3 621.085 30.198 621.187 30.198C621.731 29.756 622.241 29.246 622.615 28.736C622.751 28.328 622.989 28.022 623.227 27.682C623.193 27.512 623.261 27.206 623.363 27.206C623.295 27.002 623.499 26.832 623.465 26.526C623.669 26.39 623.567 26.186 623.601 25.982C623.771 25.234 624.213 24.452 623.975 23.636C624.145 22.922 624.145 22.31 624.179 21.392C624.213 21.392 624.281 21.392 624.281 21.358C624.077 21.086 624.349 20.61 624.213 20.338Z" fill="#212121"/>
<path d="M656.962 8.336C655.636 8.064 654.072 8.404 652.848 8.336C652.78 8.336 652.814 8.438 652.746 8.472C652.1 8.37 651.624 8.778 650.774 8.812C650.706 8.948 650.672 9.084 650.502 9.118C650.366 10.002 650.128 10.58 649.856 11.43C649.89 11.464 649.958 11.43 649.958 11.498C649.788 11.634 649.72 11.906 649.652 12.144C649.414 12.858 649.176 13.606 649.074 14.388C648.734 14.898 648.734 15.578 648.462 16.02C648.36 16.734 648.122 17.414 647.918 17.992C647.884 18.06 647.952 18.06 647.952 18.128C647.442 18.978 647.374 20.1 646.898 21.052C646.626 21.868 646.286 22.684 646.014 23.636C645.844 23.806 645.878 24.214 645.674 24.418C645.708 24.588 645.64 24.656 645.64 24.826C645.334 25.132 645.334 25.744 645.13 26.118C645.062 25.778 644.824 25.506 644.926 25.166C644.518 24.758 644.552 24.078 644.28 23.602C644.212 23.194 644.076 22.82 643.94 22.48C643.532 20.644 642.852 19.182 642.308 17.414C642.24 17.414 642.24 17.38 642.206 17.346C642.07 16.462 641.832 15.816 641.356 15.034C641.356 14.966 641.458 15 641.458 14.898C641.356 14.898 641.322 14.864 641.288 14.796C641.288 14.694 641.288 14.592 641.322 14.558C641.016 14.048 640.948 13.334 640.608 12.858C640.744 12.45 640.37 12.076 640.336 11.634C639.894 10.92 639.656 9.968 639.452 9.152C639.486 9.016 639.52 9.05 639.486 8.88C638.262 8.336 636.46 8.404 635.134 8.574C634.42 8.336 633.808 8.438 632.89 8.472C632.856 8.506 632.89 8.574 632.856 8.574C632.822 8.71 632.992 8.642 632.992 8.744C632.958 8.744 632.924 8.744 632.89 8.744C632.958 8.914 633.23 9.05 633.094 9.254C633.366 9.356 633.264 9.798 633.502 9.9C633.502 10.002 633.502 10.104 633.502 10.172C634.216 11.124 634.42 12.688 635.032 13.98C635.032 14.014 634.964 14.014 634.93 14.048C635.134 14.218 635.27 14.524 635.304 14.864C635.474 15.17 635.678 15.646 635.78 16.156C636.086 16.768 636.29 17.516 636.664 18.094C636.936 18.876 637.48 20.066 637.684 20.78C637.786 20.916 638.024 21.154 637.888 21.256C637.922 21.29 637.99 21.256 637.99 21.324C638.092 21.698 638.296 22.276 638.5 22.684C638.432 22.684 638.534 22.854 638.5 22.956C638.908 23.908 639.35 24.996 639.656 26.22C639.894 27.24 640.302 28.226 640.472 29.178C640.71 29.212 640.642 29.552 640.676 29.654C641.016 30.028 640.846 31.014 641.22 31.456C641.152 31.456 641.152 31.524 641.152 31.592C642.172 31.898 643.464 31.864 644.586 31.966C644.654 31.966 644.586 31.864 644.654 31.864C645.436 32.204 646.15 31.932 646.898 31.83C647.102 31.966 647.578 31.83 647.544 31.524C647.442 31.49 647.51 31.456 647.442 31.354C647.51 31.354 647.544 31.354 647.612 31.354C647.612 31.252 647.578 31.184 647.544 31.082C647.748 31.116 647.748 30.742 647.748 30.674C647.782 30.504 647.952 30.3 647.986 30.164C647.986 30.13 647.918 30.062 647.952 29.994C647.952 29.892 648.054 29.824 648.088 29.722C648.258 29.246 648.326 28.634 648.632 28.43C649.006 27.41 649.414 26.866 649.652 25.778C650.298 24.384 651.114 23.058 651.386 21.562C651.454 21.562 651.522 21.596 651.522 21.528C651.454 21.392 651.59 21.154 651.658 21.052C652.066 19.454 652.712 18.162 653.222 16.904C653.29 16.836 653.188 16.802 653.188 16.734C653.29 16.768 653.29 16.666 653.324 16.632C653.562 16.156 653.766 15.646 654.072 15.204C654.242 14.558 654.446 14.15 654.786 13.674C654.684 13.402 654.99 13.334 654.922 13.028C654.99 12.96 655.092 12.96 655.126 12.926C655.126 12.45 655.704 11.906 655.534 11.396C655.636 11.328 655.704 11.464 655.738 11.328C655.772 11.022 656.078 10.648 656.248 10.376C656.18 10.376 656.112 10.376 656.112 10.308C656.214 10.308 656.282 10.308 656.316 10.274C656.316 10.172 656.282 10.172 656.282 10.104C656.588 10.036 656.588 9.628 656.826 9.39C656.724 9.084 657.234 8.71 656.962 8.336Z" fill="#212121"/>
<path d="M661.196 11.6C661.298 11.566 661.298 11.668 661.332 11.736C661.57 14.354 662.624 17.142 662.488 20.066C662.624 20.882 662.726 22.412 662.76 22.82C662.76 23.126 662.828 23.84 662.964 23.976C662.862 24.214 662.964 24.826 663.1 25.064C663.032 25.37 663.066 25.812 663.236 26.05C663.202 26.594 663.372 27.172 663.474 27.716C663.508 27.954 663.508 28.362 663.576 28.634C663.61 28.702 663.678 28.736 663.678 28.804C663.712 28.838 663.61 28.906 663.61 28.974C663.644 29.11 663.78 29.28 663.814 29.45C663.882 29.79 663.882 30.028 663.848 30.368C664.018 30.47 663.882 31.082 664.188 31.184C664.188 31.252 664.12 31.218 664.12 31.252C664.426 31.49 664.766 31.388 665.174 31.422C665.412 31.456 665.684 31.592 665.99 31.626C666.534 31.694 667.146 31.626 667.758 31.626C668.2 31.66 668.574 31.762 668.948 31.796C669.186 31.83 669.56 31.796 669.832 31.864C670.172 31.966 670.342 32.17 670.58 31.932C670.988 30.81 671.09 29.076 671.702 28.124C671.838 27.036 672.382 26.39 672.62 25.2C672.654 25.2 672.688 25.2 672.722 25.2C672.858 24.316 673.266 23.364 673.436 22.446C674.286 25.166 674.286 28.022 674.762 31.082C674.796 31.15 674.898 31.15 674.898 31.218C674.864 31.218 674.796 31.218 674.796 31.252C675.102 31.524 675.51 31.32 675.884 31.422C676.02 31.456 676.088 31.558 676.19 31.558C677.584 31.796 678.638 31.286 679.896 31.252C680.168 31.252 680.406 31.354 680.644 31.388C681.222 31.422 681.562 31.184 682.038 31.252C682.208 30.946 682.344 30.572 682.378 29.994C682.684 29.246 682.888 28.498 683.024 27.648C683.874 26.22 683.534 24.35 684.418 22.922C684.384 22.616 684.554 22.548 684.622 22.378C684.758 22.072 684.724 21.902 684.826 21.664C684.86 21.562 684.962 21.494 684.996 21.358C685.098 21.086 685.03 20.78 685.064 20.406C685.098 20.304 685.234 20.134 685.132 19.998C685.166 19.93 685.234 19.93 685.268 19.862C685.2 19.692 685.234 19.42 685.37 19.318C685.336 19.318 685.302 19.318 685.302 19.25C685.846 18.026 686.22 16.802 686.764 15.714C686.798 15.646 686.73 15.646 686.696 15.612C687.036 15.34 687.104 14.796 687.308 14.354C687.308 14.286 687.24 14.286 687.24 14.252C687.682 13.606 687.784 12.926 687.988 12.178C688.022 12.11 688.09 12.11 688.124 12.076C688.396 11.158 688.804 10.342 689.348 9.526C689.314 9.356 689.416 9.254 689.348 9.084C689.382 9.016 689.45 9.016 689.484 8.982C689.382 8.846 689.28 8.71 689.11 8.574C688.09 8.642 686.968 8.506 685.914 8.234C685.846 8.302 685.846 8.336 685.744 8.37C685.03 8.2 684.622 8.336 684.01 8.234C683.806 8.778 683.568 9.662 683.5 10.342C682.718 11.872 682.412 13.946 681.664 15.51C681.698 15.51 681.766 15.51 681.766 15.544C681.46 16.428 681.358 17.618 680.984 18.298C680.644 20.202 680.066 22.48 679.216 24.146C679.012 22.344 677.72 20.44 677.516 18.4C677.516 18.366 677.414 18.4 677.414 18.332C676.938 16.836 676.53 15.442 675.918 14.082C675.918 13.674 675.748 13.47 675.646 13.164C674.49 13.028 673.164 13.334 671.94 13.232C671.804 13.47 671.838 13.946 671.6 13.98C671.668 14.286 671.464 14.388 671.6 14.558C671.532 14.558 671.498 14.626 671.43 14.592C671.226 15.544 671.124 16.326 670.92 17.142C670.886 17.244 670.818 17.414 670.682 17.516C670.648 17.618 670.716 17.618 670.716 17.686C670.444 17.856 670.478 18.57 670.24 18.876C670.24 19.454 669.934 19.862 669.9 20.304C669.832 20.338 669.798 20.338 669.764 20.372C669.492 21.63 669.05 22.888 668.676 24.112C668.404 22.956 668.03 21.732 667.758 20.542C667.554 19.556 667.554 18.536 667.418 17.516C667.316 16.734 667.078 15.952 667.044 15.17C666.874 14.966 667.01 14.626 666.84 14.32C666.874 14.252 666.84 14.218 666.874 14.082C666.738 14.082 666.806 13.878 666.704 13.878C666.84 12.96 666.33 12.11 666.33 11.158C666.296 11.09 666.228 11.022 666.194 10.954C666.058 9.968 665.888 9.152 665.82 8.234C664.698 8.234 663.406 8.2 662.59 8.472C662.25 8.608 661.876 8.54 661.536 8.642C661.468 8.642 661.4 8.744 661.298 8.778C661.094 8.846 660.822 8.812 660.652 8.982C660.788 9.56 661.162 10.308 661.026 10.92C661.094 10.954 661.162 10.92 661.162 10.954C661.162 11.294 661.298 11.43 661.196 11.6Z" fill="#212121"/>
<path d="M713.28 15.272C713.28 15.306 713.28 15.34 713.348 15.34C713.416 15.102 713.586 15.17 713.552 14.83C713.79 14.66 714.028 14.32 713.994 14.082C714.13 13.742 714.538 13.538 714.47 13.13C715.014 12.552 715.286 11.906 715.592 11.158C715.83 11.022 715.966 10.784 716.034 10.478C716.34 10.24 716.544 9.9 716.68 9.458C716.646 9.458 716.612 9.424 716.612 9.39C716.204 9.22 715.762 9.288 715.524 8.914C715.15 8.846 714.98 8.812 714.742 8.676C713.858 8.88 712.702 8.064 711.988 8.642C711.784 8.608 711.818 8.404 711.58 8.54C711.58 8.336 711.512 8.472 711.478 8.404C711.308 8.37 711.308 8.54 711.138 8.54C710.934 9.186 710.492 9.56 710.254 10.172C709.71 10.716 709.098 11.26 708.86 11.872C708.282 12.654 707.772 13.436 707.33 14.32C707.092 14.524 706.99 14.83 706.854 15.136C706.786 15.136 706.752 15.068 706.718 15.136C706.412 16.088 705.834 16.904 705.222 17.72C704.576 15.85 703.692 14.388 702.842 12.688C702.774 12.688 702.706 12.654 702.672 12.62C702.74 12.586 702.706 12.518 702.74 12.45C701.992 11.634 701.686 10.75 701.108 9.764C701.176 9.458 700.734 9.254 700.836 8.948C700.564 8.71 700.564 8.404 700.36 8.234C699.476 8.506 698.354 8.336 697.402 8.404C697.062 8.438 696.382 8.642 696.28 8.54C696.144 8.642 696.076 8.642 695.872 8.608C695.872 8.71 695.532 8.608 695.362 8.642C695.022 8.676 694.614 8.948 694.24 8.812C694.24 9.22 694.546 9.968 694.852 10.138C694.818 10.172 694.818 10.206 694.818 10.274C694.988 10.342 695.09 10.478 695.124 10.682C695.668 11.294 696.042 12.076 696.45 12.722C696.518 12.824 696.586 12.96 696.518 12.994C696.688 13.062 696.79 13.198 696.79 13.402C697.164 13.742 697.334 14.252 697.674 14.66C697.606 14.66 697.606 14.694 697.572 14.728C697.776 14.762 697.844 14.694 697.742 14.83C698.354 15.612 698.966 16.564 699.476 17.414C699.578 17.55 699.68 17.754 699.714 17.924C699.952 18.06 700.054 18.366 700.122 18.672C700.598 19.25 700.972 20.338 701.618 20.984C701.482 20.984 701.55 21.188 701.38 21.154C701.074 21.698 700.7 22.174 700.19 22.514C700.054 22.854 699.714 22.956 699.476 23.194C699.306 23.33 699.272 23.568 699.136 23.738C699.068 23.84 698.932 23.874 698.83 23.976C698.49 24.384 698.218 24.86 697.81 25.132C697.81 25.2 697.81 25.234 697.81 25.302C697.334 25.574 697.232 26.254 696.756 26.492C696.28 27.274 695.498 27.92 695.022 28.532C694.988 28.702 695.056 28.77 694.954 28.804C694.886 28.804 694.92 28.736 694.852 28.736C694.886 28.838 694.784 28.804 694.818 28.94C694.24 29.28 693.968 29.926 693.39 30.232C693.356 30.402 693.458 30.504 693.356 30.538C694.172 30.844 694.716 31.388 695.26 31.762C695.464 31.796 695.464 31.626 695.668 31.66C696.45 32.102 697.572 31.388 698.796 31.694C699.238 31.796 700.19 31.796 700.87 31.796C701.414 31.796 702.094 31.728 701.958 31.014C702.162 30.572 702.468 30.266 702.672 29.858C702.842 29.62 702.978 29.348 702.978 29.076C703.284 29.042 703.352 28.668 703.318 28.532C703.386 28.566 703.386 28.6 703.454 28.6C703.488 28.464 703.726 28.26 703.556 28.158C703.658 28.192 703.692 28.158 703.76 28.124C703.794 28.022 703.794 28.022 703.76 27.92C704.032 27.818 704.1 27.41 704.032 27.24C704.27 27.002 704.406 26.696 704.644 26.492C704.746 26.662 704.814 26.866 704.95 27.002C705.324 28.192 705.902 29.28 706.208 30.47C706.48 30.504 706.582 30.708 706.582 30.878C707.058 31.116 706.888 31.558 707.262 31.898C709.064 32.272 711.444 31.32 713.042 32.034C713.484 31.796 713.892 32.102 714.3 31.762C714.3 31.456 714.198 31.116 713.858 31.048C712.77 29.722 712.09 27.886 711.07 26.322C710.934 25.914 710.73 25.574 710.424 25.302C710.288 24.758 709.914 24.452 709.778 23.976C709.71 23.942 709.676 24.01 709.642 23.942C709.336 22.99 708.656 22.378 708.112 21.63C708.316 21.358 708.792 21.086 708.962 20.814C708.962 20.78 708.928 20.678 708.962 20.644C708.996 20.61 709.064 20.678 709.098 20.61C709.166 20.542 709.098 20.508 709.2 20.44C709.234 20.372 709.404 20.338 709.472 20.27C709.642 20.1 709.71 19.862 709.812 19.692C709.982 19.692 709.812 19.794 709.914 19.794C710.356 19.284 710.798 18.774 711.376 18.434C711.75 17.652 712.498 17.006 712.94 16.156C712.94 16.088 713.076 16.156 713.076 16.088C713.11 15.85 713.28 15.51 713.28 15.272Z" fill="#212121"/>
<path d="M727.804 8.336C726.886 8.676 725.764 8.472 724.948 8.812C725.22 9.798 725.798 10.478 726.376 11.158C726.92 12.28 727.702 13.402 728.212 14.626C728.246 14.864 728.28 14.864 728.382 14.966C728.348 15 728.314 14.966 728.314 15C728.722 15.952 729.096 17.04 729.538 18.026C730.15 18.944 730.66 19.726 731.306 20.61C731.34 20.984 731.544 21.018 731.51 21.392C731.748 21.596 731.85 21.97 732.122 22.174C732.054 22.378 732.428 22.752 732.496 23.092C732.258 23.568 732.122 23.942 731.952 24.418C731.986 24.418 732.054 24.452 732.054 24.486C731.986 24.486 731.986 24.452 731.918 24.452C731.816 24.758 731.748 24.962 731.612 25.302C731.714 25.37 731.884 25.268 731.884 25.302C731.884 25.404 731.748 25.472 731.578 25.472C730.898 27.274 730.082 28.838 728.926 30.198C728.926 30.3 729.096 30.232 729.062 30.368C728.586 30.572 728.348 31.048 727.974 31.32C727.94 31.49 728.042 31.558 728.076 31.694C728.45 31.66 728.892 31.864 729.164 31.626C729.13 31.728 729.266 31.694 729.266 31.762C729.64 31.728 729.946 31.796 730.252 31.864C731.102 32.102 731.68 32.034 732.462 31.966C733.006 31.898 733.686 32.238 734.06 31.762C734.128 31.626 733.958 31.694 733.958 31.626C734.026 31.592 734.094 31.524 734.23 31.524C734.128 30.98 734.4 30.572 734.638 30.232C734.638 30.13 734.57 30.096 734.57 30.028C734.876 29.246 735.386 28.532 735.59 27.784C735.794 27.478 736.032 27.07 736.168 26.832C736.202 26.764 736.202 26.662 736.236 26.594C736.27 26.526 736.372 26.526 736.406 26.458C736.576 26.186 736.576 25.88 736.746 25.676C736.78 25.642 736.882 25.676 736.916 25.608C737.018 25.472 737.018 25.2 737.12 25.064C737.154 25.03 737.222 25.03 737.256 25.03C737.392 24.758 737.426 24.452 737.528 24.18C737.562 24.112 737.698 24.078 737.732 24.01C737.902 23.636 738.106 23.126 738.174 22.718C738.31 22.718 738.31 22.582 738.378 22.514C738.276 22.344 738.582 22.038 738.514 21.766C738.956 21.188 739.126 20.338 739.398 19.59C739.84 18.944 740.044 18.094 740.486 17.414C740.452 17.414 740.316 17.38 740.418 17.346C740.452 17.346 740.418 17.312 740.418 17.278C740.486 17.244 740.52 17.38 740.554 17.278C740.588 16.972 740.962 16.598 740.962 16.224C740.996 16.224 741.03 16.258 741.064 16.258C741.37 15.51 741.812 14.864 742.186 14.15C742.152 14.15 742.118 14.15 742.118 14.116C742.56 13.64 742.968 12.79 743.478 12.382C743.716 11.906 743.988 11.226 744.43 10.784C744.396 10.784 744.396 10.716 744.396 10.682C744.702 10.75 744.532 10.342 744.736 10.274C744.702 9.764 745.246 9.39 745.246 8.812C745.008 8.812 745.11 8.438 744.838 8.37C744.702 8.574 744.396 8.37 744.226 8.54C744.09 8.302 743.444 8.37 743.342 8.506C743.308 8.472 743.274 8.438 743.274 8.37C742.492 8.642 741.302 8.302 740.52 8.54C739.942 8.302 739.84 8.472 739.16 8.574C739.228 8.608 738.99 8.676 738.99 8.778C739.024 8.812 739.058 8.812 739.058 8.88C738.276 10.784 737.834 12.586 736.78 14.286C736.746 14.626 736.576 15 736.372 15.204C736.406 15.204 736.44 15.204 736.44 15.238C735.794 16.224 735.42 17.448 734.74 18.332C734.604 17.686 734.162 17.346 733.992 16.7C733.516 16.19 733.38 15.51 733.006 14.966C733.006 14.932 733.074 14.932 733.04 14.864C732.088 13.606 731.782 11.736 731.068 10.274C731.102 10.24 731.102 10.172 731.136 10.138C731.068 10.138 731.034 10.206 730.966 10.172C730.966 9.866 730.762 9.866 730.864 9.628C730.524 9.39 730.592 8.846 730.252 8.506C730.252 8.438 730.252 8.37 730.252 8.302C730.048 8.2 729.912 8.302 729.64 8.234C729.572 8.268 729.708 8.302 729.606 8.336C729.198 8.2 728.62 8.302 728.144 8.404C728.144 8.37 728.212 8.336 728.212 8.302C728.076 8.336 727.872 8.37 727.804 8.404C727.804 8.37 727.872 8.37 727.804 8.336Z" fill="#212121"/>
<path d="M773.794 8.302C773.556 8.2 773.386 8.336 773.148 8.37C771.822 8.03 770.224 8.506 768.592 8.642C768.116 8.71 767.572 8.642 767.028 8.676C766.654 8.71 766.246 8.846 765.872 8.846C764.444 8.812 762.914 8.846 761.792 8.778C761.146 8.71 760.432 8.642 759.99 8.642C758.97 8.778 757.848 8.676 756.692 8.778C756.59 8.778 756.59 8.642 756.454 8.676C756.386 8.778 756.454 8.948 756.42 8.948C756.318 8.812 756.25 8.914 756.08 8.88C755.808 9.186 756.148 9.628 756.318 10.036C756.488 10.478 756.556 10.886 756.76 11.192C756.794 11.192 756.93 11.124 756.93 11.226C756.862 11.192 756.828 11.26 756.828 11.328C757.134 11.906 757.406 12.654 757.678 13.13C757.882 13.436 757.848 13.844 758.154 14.082C757.95 14.15 758.154 14.354 758.222 14.422C758.698 14.354 759.038 14.184 759.344 14.014C759.344 14.048 759.276 14.082 759.276 14.116C759.82 14.15 760.33 13.742 760.908 13.674C761.18 13.64 761.35 13.674 761.452 13.47C761.52 13.64 761.724 13.436 761.826 13.402C762.472 13.164 763.288 13.028 764.002 13.028C765.634 13.028 767.232 12.586 768.864 12.586C767.708 13.946 766.382 15.034 765.498 16.496C765.43 16.53 765.43 16.598 765.294 16.564C765.226 16.972 764.648 17.312 764.41 17.584C764.308 17.72 764.274 17.822 764.104 17.856C764.07 18.128 763.56 18.264 763.492 18.638C763.186 18.808 763.186 19.08 762.88 19.284C762.914 19.284 762.948 19.318 762.948 19.352C762.846 19.386 762.846 19.488 762.744 19.488C762.608 20.066 761.962 20.338 761.826 20.814C760.976 21.426 760.568 22.548 759.684 23.16C759.344 23.67 758.936 24.282 758.494 24.52C757.984 25.268 757.44 25.948 756.692 26.424C756.522 26.968 755.944 27.104 755.604 27.512C755.604 27.648 755.74 27.682 755.74 27.852C755.366 28.158 755.774 28.872 755.638 28.906C755.706 28.974 755.774 29.008 755.808 29.11C755.706 29.11 755.672 29.008 755.672 29.144C755.638 29.552 756.08 29.824 755.842 30.13C756.046 30.096 755.876 30.198 755.876 30.232C755.876 30.3 755.91 30.742 755.944 30.844C755.978 30.946 756.114 31.014 756.148 31.15C756.182 31.388 756.216 31.558 756.216 31.83C756.59 32.306 757.338 31.762 758.188 31.66C759.514 31.524 760.67 31.762 761.724 31.558C762.098 31.66 762.472 31.66 762.812 31.66C763.526 31.694 764.172 31.354 764.886 31.286C765.702 31.184 766.518 31.354 767.13 31.048C767.3 31.184 767.708 31.082 768.116 31.014C768.048 31.014 767.98 31.014 767.98 30.98C768.184 30.912 768.592 31.048 768.558 30.878C768.592 30.878 768.66 31.082 768.694 30.946C768.592 30.98 768.66 30.878 768.694 30.878C768.932 30.878 769.714 30.878 769.952 30.708C770.122 30.708 769.884 30.81 770.054 30.81C770.836 30.64 771.856 30.504 772.774 30.504C772.74 30.504 772.706 30.436 772.706 30.436C772.876 30.436 773.624 30.504 773.794 30.266C773.828 29.892 773.76 29.246 773.794 28.77C773.454 27.614 773.726 26.73 773.318 25.336C773.08 25.37 773.318 25.166 773.148 25.132C773.012 25.098 772.366 25.064 772.434 25.336C772.4 25.336 772.4 25.268 772.4 25.2C772.264 25.2 772.264 25.336 772.128 25.336C769.34 25.574 766.994 26.22 764.41 26.662C764.716 26.22 764.954 25.71 765.294 25.336C765.736 24.044 766.79 23.058 767.47 21.868C767.402 21.8 767.47 21.766 767.47 21.596C767.98 21.052 768.184 20.27 768.796 19.794C768.66 19.658 768.864 19.556 768.966 19.522C768.932 19.522 768.864 19.488 768.898 19.454C769.544 18.604 770.224 17.754 770.972 17.04C771.074 17.074 771.074 16.972 771.142 16.972C771.89 16.088 772.638 15.442 773.42 14.66C773.454 14.626 773.522 14.592 773.624 14.626C773.828 14.048 774.678 13.708 774.406 13.028C774.406 12.96 774.508 12.96 774.508 12.892C774.338 12.858 774.474 12.79 774.406 12.722C774.338 11.158 774.44 9.866 774.372 8.336C774.202 8.234 773.828 8.166 773.794 8.302Z" fill="#212121"/>
</svg>
